<?xml version="1.0" encoding="UTF-8" standalone="no"?>
<svg
   xmlns:dc="http://purl.org/dc/elements/1.1/"
   xmlns:cc="http://creativecommons.org/ns#"
   xmlns:rdf="http://www.w3.org/1999/02/22-rdf-syntax-ns#"
   xmlns:svg="http://www.w3.org/2000/svg"
   xmlns="http://www.w3.org/2000/svg"
   viewBox="0 0 2267.7166 2267.7166"
   height="2267.7166"
   width="2267.7166"
   xml:space="preserve"
   id="svg2"
   version="1.1"><metadata
     id="metadata8"><rdf:RDF><cc:Work
         rdf:about=""><dc:format>image/svg+xml</dc:format><dc:type
           rdf:resource="http://purl.org/dc/dcmitype/StillImage" /></cc:Work></rdf:RDF></metadata><defs
     id="defs6"><clipPath
       id="clipPath22"
       clipPathUnits="userSpaceOnUse"><path
         style="clip-rule:evenodd"
         id="path20"
         d="m 330.421,1080.5403 h 700.786 c -10.5038,4.1153 -21.9195,6.3802 -33.8381,6.3802 H 364.2695 v 0 c -11.9213,0 -23.3424,-2.2623 -33.8485,-6.3802" /></clipPath><linearGradient
       id="linearGradient28"
       spreadMethod="pad"
       gradientUnits="userSpaceOnUse"
       y2="1083.71"
       x2="1031.1899"
       y1="1083.71"
       x1="330.41"><stop
         id="stop24"
         offset="0"
         style="stop-opacity:1;stop-color:#422a5a" /><stop
         id="stop26"
         offset="1"
         style="stop-opacity:1;stop-color:#000000" /></linearGradient><clipPath
       id="clipPath38"
       clipPathUnits="userSpaceOnUse"><path
         style="clip-rule:evenodd"
         id="path36"
         d="m 303.3235,1064.1745 h 754.9912 c -5.2504,4.5326 -11.0038,8.4846 -17.1613,11.7813 H 320.4797 c -6.1628,-3.2913 -11.9109,-7.2513 -17.1562,-11.7813" /></clipPath><linearGradient
       id="linearGradient44"
       spreadMethod="pad"
       gradientUnits="userSpaceOnUse"
       y2="1070.09"
       x2="1058.34"
       y1="1070.09"
       x1="303.35001"><stop
         id="stop40"
         offset="0"
         style="stop-opacity:1;stop-color:#422a5a" /><stop
         id="stop42"
         offset="1"
         style="stop-opacity:1;stop-color:#000000" /></linearGradient><clipPath
       id="clipPath54"
       clipPathUnits="userSpaceOnUse"><path
         style="clip-rule:evenodd"
         id="path52"
         d="M 1063.2518,1059.5874 H 298.3762 c -3.6541,-3.6414 -7.0103,-7.5804 -10.0321,-11.7788 h 784.942 c -3.0166,4.1984 -6.3776,8.1374 -10.0343,11.7788" /></clipPath><linearGradient
       id="linearGradient60"
       spreadMethod="pad"
       gradientUnits="userSpaceOnUse"
       y2="1053.72"
       x2="1073.33"
       y1="1053.72"
       x1="288.35999"><stop
         id="stop56"
         offset="0"
         style="stop-opacity:1;stop-color:#422a5a" /><stop
         id="stop58"
         offset="1"
         style="stop-opacity:1;stop-color:#000000" /></linearGradient><clipPath
       id="clipPath70"
       clipPathUnits="userSpaceOnUse"><path
         style="clip-rule:evenodd"
         id="path68"
         d="m 278.9161,1031.4507 h 803.8035 c -1.8349,4.0867 -3.9547,8.0184 -6.3338,11.7709 H 285.2524 c -2.3817,-3.7525 -4.5014,-7.6842 -6.3363,-11.7709" /></clipPath><linearGradient
       id="linearGradient76"
       spreadMethod="pad"
       gradientUnits="userSpaceOnUse"
       y2="1037.36"
       x2="1082.75"
       y1="1037.36"
       x1="278.94"><stop
         id="stop72"
         offset="0"
         style="stop-opacity:1;stop-color:#422a5a" /><stop
         id="stop74"
         offset="1"
         style="stop-opacity:1;stop-color:#000000" /></linearGradient><clipPath
       id="clipPath86"
       clipPathUnits="userSpaceOnUse"><path
         style="clip-rule:evenodd"
         id="path84"
         d="m 273.3418,1015.0773 h 814.9549 c -0.9669,4.0348 -2.1951,7.969 -3.6672,11.781 H 277.0036 c -1.4721,-3.812 -2.6952,-7.7462 -3.6618,-11.781" /></clipPath><linearGradient
       id="linearGradient92"
       spreadMethod="pad"
       gradientUnits="userSpaceOnUse"
       y2="1020.99"
       x2="1088.33"
       y1="1020.99"
       x1="273.37"><stop
         id="stop88"
         offset="0"
         style="stop-opacity:1;stop-color:#422a5a" /><stop
         id="stop90"
         offset="1"
         style="stop-opacity:1;stop-color:#000000" /></linearGradient><clipPath
       id="clipPath102"
       clipPathUnits="userSpaceOnUse"><path
         style="clip-rule:evenodd"
         id="path100"
         d="m 270.9445,998.7114 h 819.7492 c -0.2279,3.9963 -0.7047,7.9302 -1.4227,11.7814 H 272.3672 c -0.7177,-3.8512 -1.2024,-7.7851 -1.4227,-11.7814" /></clipPath><linearGradient
       id="linearGradient108"
       spreadMethod="pad"
       gradientUnits="userSpaceOnUse"
       y2="1004.63"
       x2="1090.7"
       y1="1004.63"
       x1="270.98999"><stop
         id="stop104"
         offset="0"
         style="stop-opacity:1;stop-color:#422a5a" /><stop
         id="stop106"
         offset="1"
         style="stop-opacity:1;stop-color:#000000" /></linearGradient><clipPath
       id="clipPath118"
       clipPathUnits="userSpaceOnUse"><path
         style="clip-rule:evenodd"
         id="path116"
         d="M 1090.8388,994.1244 H 270.7994 l -0.0105,-0.6792 v -11.0996 h 820.0604 v 11.0996 l -0.011,0.6792 z" /></clipPath><linearGradient
       id="linearGradient124"
       spreadMethod="pad"
       gradientUnits="userSpaceOnUse"
       y2="988.26001"
       x2="1090.89"
       y1="988.26001"
       x1="270.81"><stop
         id="stop120"
         offset="0"
         style="stop-opacity:1;stop-color:#422a5a" /><stop
         id="stop122"
         offset="1"
         style="stop-opacity:1;stop-color:#000000" /></linearGradient><clipPath
       id="clipPath134"
       clipPathUnits="userSpaceOnUse"><path
         style="clip-rule:evenodd"
         id="path132"
         d="m 270.7889,965.9823 h 820.0604 v 11.7763 H 270.7889 Z" /></clipPath><linearGradient
       id="linearGradient140"
       spreadMethod="pad"
       gradientUnits="userSpaceOnUse"
       y2="971.90002"
       x2="1090.89"
       y1="971.90002"
       x1="270.81"><stop
         id="stop136"
         offset="0"
         style="stop-opacity:1;stop-color:#422a5a" /><stop
         id="stop138"
         offset="1"
         style="stop-opacity:1;stop-color:#000000" /></linearGradient><clipPath
       id="clipPath150"
       clipPathUnits="userSpaceOnUse"><path
         style="clip-rule:evenodd"
         id="path148"
         d="m 270.7889,949.6168 h 820.0604 v 11.776 H 270.7889 Z" /></clipPath><linearGradient
       id="linearGradient156"
       spreadMethod="pad"
       gradientUnits="userSpaceOnUse"
       y2="955.53003"
       x2="1090.89"
       y1="955.53003"
       x1="270.81"><stop
         id="stop152"
         offset="0"
         style="stop-opacity:1;stop-color:#422a5a" /><stop
         id="stop154"
         offset="1"
         style="stop-opacity:1;stop-color:#000000" /></linearGradient><clipPath
       id="clipPath166"
       clipPathUnits="userSpaceOnUse"><path
         style="clip-rule:evenodd"
         id="path164"
         d="m 270.7889,933.2484 h 820.0604 v 11.7814 H 270.7889 Z" /></clipPath><linearGradient
       id="linearGradient172"
       spreadMethod="pad"
       gradientUnits="userSpaceOnUse"
       y2="939.16998"
       x2="1090.89"
       y1="939.16998"
       x1="270.81"><stop
         id="stop168"
         offset="0"
         style="stop-opacity:1;stop-color:#422a5a" /><stop
         id="stop170"
         offset="1"
         style="stop-opacity:1;stop-color:#000000" /></linearGradient><clipPath
       id="clipPath182"
       clipPathUnits="userSpaceOnUse"><path
         style="clip-rule:evenodd"
         id="path180"
         d="m 270.7889,916.8877 h 820.0604 v 11.7762 H 270.7889 Z" /></clipPath><linearGradient
       id="linearGradient188"
       spreadMethod="pad"
       gradientUnits="userSpaceOnUse"
       y2="922.79999"
       x2="1090.89"
       y1="922.79999"
       x1="270.81"><stop
         id="stop184"
         offset="0"
         style="stop-opacity:1;stop-color:#422a5a" /><stop
         id="stop186"
         offset="1"
         style="stop-opacity:1;stop-color:#000000" /></linearGradient><clipPath
       id="clipPath198"
       clipPathUnits="userSpaceOnUse"><path
         style="clip-rule:evenodd"
         id="path196"
         d="M 1090.8493,912.2956 H 270.7889 v -11.7788 h 820.0604 z" /></clipPath><linearGradient
       id="linearGradient204"
       spreadMethod="pad"
       gradientUnits="userSpaceOnUse"
       y2="906.44"
       x2="1090.89"
       y1="906.44"
       x1="270.81"><stop
         id="stop200"
         offset="0"
         style="stop-opacity:1;stop-color:#422a5a" /><stop
         id="stop202"
         offset="1"
         style="stop-opacity:1;stop-color:#000000" /></linearGradient><clipPath
       id="clipPath214"
       clipPathUnits="userSpaceOnUse"><path
         style="clip-rule:evenodd"
         id="path212"
         d="m 270.7889,884.1538 h 820.0604 v 11.7759 H 270.7889 Z" /></clipPath><linearGradient
       id="linearGradient220"
       spreadMethod="pad"
       gradientUnits="userSpaceOnUse"
       y2="890.07001"
       x2="1090.89"
       y1="890.07001"
       x1="270.81"><stop
         id="stop216"
         offset="0"
         style="stop-opacity:1;stop-color:#422a5a" /><stop
         id="stop218"
         offset="1"
         style="stop-opacity:1;stop-color:#000000" /></linearGradient><clipPath
       id="clipPath230"
       clipPathUnits="userSpaceOnUse"><path
         style="clip-rule:evenodd"
         id="path228"
         d="M 1090.8493,879.5667 H 270.7889 v -11.7839 h 820.0604 z" /></clipPath><linearGradient
       id="linearGradient236"
       spreadMethod="pad"
       gradientUnits="userSpaceOnUse"
       y2="873.71002"
       x2="1090.89"
       y1="873.71002"
       x1="270.81"><stop
         id="stop232"
         offset="0"
         style="stop-opacity:1;stop-color:#422a5a" /><stop
         id="stop234"
         offset="1"
         style="stop-opacity:1;stop-color:#000000" /></linearGradient><clipPath
       id="clipPath246"
       clipPathUnits="userSpaceOnUse"><path
         style="clip-rule:evenodd"
         id="path244"
         d="M 1090.8493,863.1984 H 270.7889 V 851.417 h 820.0604 z" /></clipPath><linearGradient
       id="linearGradient252"
       spreadMethod="pad"
       gradientUnits="userSpaceOnUse"
       y2="857.34003"
       x2="1090.89"
       y1="857.34003"
       x1="270.81"><stop
         id="stop248"
         offset="0"
         style="stop-opacity:1;stop-color:#422a5a" /><stop
         id="stop250"
         offset="1"
         style="stop-opacity:1;stop-color:#000000" /></linearGradient><clipPath
       id="clipPath262"
       clipPathUnits="userSpaceOnUse"><path
         style="clip-rule:evenodd"
         id="path260"
         d="m 270.7889,835.0566 h 820.0604 v 11.7785 H 270.7889 Z" /></clipPath><linearGradient
       id="linearGradient268"
       spreadMethod="pad"
       gradientUnits="userSpaceOnUse"
       y2="840.97998"
       x2="1090.89"
       y1="840.97998"
       x1="270.81"><stop
         id="stop264"
         offset="0"
         style="stop-opacity:1;stop-color:#422a5a" /><stop
         id="stop266"
         offset="1"
         style="stop-opacity:1;stop-color:#000000" /></linearGradient><clipPath
       id="clipPath278"
       clipPathUnits="userSpaceOnUse"><path
         style="clip-rule:evenodd"
         id="path276"
         d="M 1090.8493,830.4667 H 270.7889 v -11.776 h 820.0604 z" /></clipPath><linearGradient
       id="linearGradient284"
       spreadMethod="pad"
       gradientUnits="userSpaceOnUse"
       y2="824.60999"
       x2="1090.89"
       y1="824.60999"
       x1="270.81"><stop
         id="stop280"
         offset="0"
         style="stop-opacity:1;stop-color:#422a5a" /><stop
         id="stop282"
         offset="1"
         style="stop-opacity:1;stop-color:#000000" /></linearGradient><clipPath
       id="clipPath294"
       clipPathUnits="userSpaceOnUse"><path
         style="clip-rule:evenodd"
         id="path292"
         d="M 1090.8493,814.1009 H 270.7889 v -11.776 h 820.0604 z" /></clipPath><linearGradient
       id="linearGradient300"
       spreadMethod="pad"
       gradientUnits="userSpaceOnUse"
       y2="808.25"
       x2="1090.89"
       y1="808.25"
       x1="270.81"><stop
         id="stop296"
         offset="0"
         style="stop-opacity:1;stop-color:#422a5a" /><stop
         id="stop298"
         offset="1"
         style="stop-opacity:1;stop-color:#000000" /></linearGradient><clipPath
       id="clipPath310"
       clipPathUnits="userSpaceOnUse"><path
         style="clip-rule:evenodd"
         id="path308"
         d="M 1090.8493,797.7353 H 270.7889 V 785.954 h 820.0604 z" /></clipPath><linearGradient
       id="linearGradient316"
       spreadMethod="pad"
       gradientUnits="userSpaceOnUse"
       y2="791.88"
       x2="1090.89"
       y1="791.88"
       x1="270.81"><stop
         id="stop312"
         offset="0"
         style="stop-opacity:1;stop-color:#422a5a" /><stop
         id="stop314"
         offset="1"
         style="stop-opacity:1;stop-color:#000000" /></linearGradient><clipPath
       id="clipPath326"
       clipPathUnits="userSpaceOnUse"><path
         style="clip-rule:evenodd"
         id="path324"
         d="M 1090.8493,781.3721 H 270.7889 v -11.7814 h 820.0604 z" /></clipPath><linearGradient
       id="linearGradient332"
       spreadMethod="pad"
       gradientUnits="userSpaceOnUse"
       y2="775.52002"
       x2="1090.89"
       y1="775.52002"
       x1="270.81"><stop
         id="stop328"
         offset="0"
         style="stop-opacity:1;stop-color:#422a5a" /><stop
         id="stop330"
         offset="1"
         style="stop-opacity:1;stop-color:#000000" /></linearGradient><clipPath
       id="clipPath342"
       clipPathUnits="userSpaceOnUse"><path
         style="clip-rule:evenodd"
         id="path340"
         d="M 1090.8493,765.0062 H 270.7889 v -11.781 h 820.0604 z" /></clipPath><linearGradient
       id="linearGradient348"
       spreadMethod="pad"
       gradientUnits="userSpaceOnUse"
       y2="759.15002"
       x2="1090.89"
       y1="759.15002"
       x1="270.81"><stop
         id="stop344"
         offset="0"
         style="stop-opacity:1;stop-color:#422a5a" /><stop
         id="stop346"
         offset="1"
         style="stop-opacity:1;stop-color:#000000" /></linearGradient><clipPath
       id="clipPath358"
       clipPathUnits="userSpaceOnUse"><path
         style="clip-rule:evenodd"
         id="path356"
         d="M 1090.8493,748.6379 H 270.7889 v -11.776 h 820.0604 z" /></clipPath><linearGradient
       id="linearGradient364"
       spreadMethod="pad"
       gradientUnits="userSpaceOnUse"
       y2="742.78998"
       x2="1090.89"
       y1="742.78998"
       x1="270.81"><stop
         id="stop360"
         offset="0"
         style="stop-opacity:1;stop-color:#422a5a" /><stop
         id="stop362"
         offset="1"
         style="stop-opacity:1;stop-color:#000000" /></linearGradient><clipPath
       id="clipPath374"
       clipPathUnits="userSpaceOnUse"><path
         style="clip-rule:evenodd"
         id="path372"
         d="m 270.7889,720.4986 h 820.0604 v 11.7737 H 270.7889 Z" /></clipPath><linearGradient
       id="linearGradient380"
       spreadMethod="pad"
       gradientUnits="userSpaceOnUse"
       y2="726.41998"
       x2="1090.89"
       y1="726.41998"
       x1="270.81"><stop
         id="stop376"
         offset="0"
         style="stop-opacity:1;stop-color:#422a5a" /><stop
         id="stop378"
         offset="1"
         style="stop-opacity:1;stop-color:#000000" /></linearGradient><clipPath
       id="clipPath390"
       clipPathUnits="userSpaceOnUse"><path
         style="clip-rule:evenodd"
         id="path388"
         d="M 1090.8493,715.9065 H 270.7889 v -11.7814 h 820.0604 z" /></clipPath><linearGradient
       id="linearGradient396"
       spreadMethod="pad"
       gradientUnits="userSpaceOnUse"
       y2="710.06"
       x2="1090.89"
       y1="710.06"
       x1="270.81"><stop
         id="stop392"
         offset="0"
         style="stop-opacity:1;stop-color:#422a5a" /><stop
         id="stop394"
         offset="1"
         style="stop-opacity:1;stop-color:#000000" /></linearGradient><clipPath
       id="clipPath406"
       clipPathUnits="userSpaceOnUse"><path
         style="clip-rule:evenodd"
         id="path404"
         d="M 1090.8493,699.5432 H 270.7889 v -11.7811 h 820.0604 z" /></clipPath><linearGradient
       id="linearGradient412"
       spreadMethod="pad"
       gradientUnits="userSpaceOnUse"
       y2="693.69"
       x2="1090.89"
       y1="693.69"
       x1="270.81"><stop
         id="stop408"
         offset="0"
         style="stop-opacity:1;stop-color:#422a5a" /><stop
         id="stop410"
         offset="1"
         style="stop-opacity:1;stop-color:#000000" /></linearGradient><clipPath
       id="clipPath422"
       clipPathUnits="userSpaceOnUse"><path
         style="clip-rule:evenodd"
         id="path420"
         d="M 1090.8493,683.1723 H 270.7889 v -11.776 h 820.0604 z" /></clipPath><linearGradient
       id="linearGradient428"
       spreadMethod="pad"
       gradientUnits="userSpaceOnUse"
       y2="677.33002"
       x2="1090.89"
       y1="677.33002"
       x1="270.81"><stop
         id="stop424"
         offset="0"
         style="stop-opacity:1;stop-color:#422a5a" /><stop
         id="stop426"
         offset="1"
         style="stop-opacity:1;stop-color:#000000" /></linearGradient><clipPath
       id="clipPath438"
       clipPathUnits="userSpaceOnUse"><path
         style="clip-rule:evenodd"
         id="path436"
         d="M 1090.8493,666.8067 H 270.7889 v -11.7762 h 820.0604 z" /></clipPath><linearGradient
       id="linearGradient444"
       spreadMethod="pad"
       gradientUnits="userSpaceOnUse"
       y2="660.96002"
       x2="1090.89"
       y1="660.96002"
       x1="270.81"><stop
         id="stop440"
         offset="0"
         style="stop-opacity:1;stop-color:#422a5a" /><stop
         id="stop442"
         offset="1"
         style="stop-opacity:1;stop-color:#000000" /></linearGradient><clipPath
       id="clipPath454"
       clipPathUnits="userSpaceOnUse"><path
         style="clip-rule:evenodd"
         id="path452"
         d="m 270.7889,638.67 h 820.0604 v 11.7735 H 270.7889 Z" /></clipPath><linearGradient
       id="linearGradient460"
       spreadMethod="pad"
       gradientUnits="userSpaceOnUse"
       y2="644.59998"
       x2="1090.89"
       y1="644.59998"
       x1="270.81"><stop
         id="stop456"
         offset="0"
         style="stop-opacity:1;stop-color:#422a5a" /><stop
         id="stop458"
         offset="1"
         style="stop-opacity:1;stop-color:#000000" /></linearGradient><clipPath
       id="clipPath470"
       clipPathUnits="userSpaceOnUse"><path
         style="clip-rule:evenodd"
         id="path468"
         d="M 1090.8493,634.0776 H 270.7889 v -11.7759 h 820.0604 z" /></clipPath><linearGradient
       id="linearGradient476"
       spreadMethod="pad"
       gradientUnits="userSpaceOnUse"
       y2="628.22998"
       x2="1090.89"
       y1="628.22998"
       x1="270.81"><stop
         id="stop472"
         offset="0"
         style="stop-opacity:1;stop-color:#422a5a" /><stop
         id="stop474"
         offset="1"
         style="stop-opacity:1;stop-color:#000000" /></linearGradient><clipPath
       id="clipPath486"
       clipPathUnits="userSpaceOnUse"><path
         style="clip-rule:evenodd"
         id="path484"
         d="M 1090.8493,617.7146 H 270.7889 v -11.7813 h 820.0604 z" /></clipPath><linearGradient
       id="linearGradient492"
       spreadMethod="pad"
       gradientUnits="userSpaceOnUse"
       y2="611.87"
       x2="1090.89"
       y1="611.87"
       x1="270.81"><stop
         id="stop488"
         offset="0"
         style="stop-opacity:1;stop-color:#422a5a" /><stop
         id="stop490"
         offset="1"
         style="stop-opacity:1;stop-color:#000000" /></linearGradient><clipPath
       id="clipPath502"
       clipPathUnits="userSpaceOnUse"><path
         style="clip-rule:evenodd"
         id="path500"
         d="M 1090.8493,601.3437 H 270.7889 v -11.7762 h 820.0604 z" /></clipPath><linearGradient
       id="linearGradient508"
       spreadMethod="pad"
       gradientUnits="userSpaceOnUse"
       y2="595.40997"
       x2="1090.89"
       y1="595.40997"
       x1="270.81"><stop
         id="stop504"
         offset="0"
         style="stop-opacity:1;stop-color:#422a5a" /><stop
         id="stop506"
         offset="1"
         style="stop-opacity:1;stop-color:#000000" /></linearGradient><clipPath
       id="clipPath518"
       clipPathUnits="userSpaceOnUse"><path
         style="clip-rule:evenodd"
         id="path516"
         d="M 1090.8493,584.9779 H 270.7889 v -11.7814 h 820.0604 z" /></clipPath><linearGradient
       id="linearGradient524"
       spreadMethod="pad"
       gradientUnits="userSpaceOnUse"
       y2="579.03998"
       x2="1090.89"
       y1="579.03998"
       x1="270.81"><stop
         id="stop520"
         offset="0"
         style="stop-opacity:1;stop-color:#422a5a" /><stop
         id="stop522"
         offset="1"
         style="stop-opacity:1;stop-color:#000000" /></linearGradient><clipPath
       id="clipPath534"
       clipPathUnits="userSpaceOnUse"><path
         style="clip-rule:evenodd"
         id="path532"
         d="M 1090.8493,568.6146 H 270.7889 v -11.7811 h 820.0604 z" /></clipPath><linearGradient
       id="linearGradient540"
       spreadMethod="pad"
       gradientUnits="userSpaceOnUse"
       y2="562.77002"
       x2="1090.89"
       y1="562.77002"
       x1="270.81"><stop
         id="stop536"
         offset="0"
         style="stop-opacity:1;stop-color:#422a5a" /><stop
         id="stop538"
         offset="1"
         style="stop-opacity:1;stop-color:#000000" /></linearGradient><clipPath
       id="clipPath550"
       clipPathUnits="userSpaceOnUse"><path
         style="clip-rule:evenodd"
         id="path548"
         d="m 270.7889,540.4677 h 820.0604 v 11.7839 H 270.7889 Z" /></clipPath><linearGradient
       id="linearGradient556"
       spreadMethod="pad"
       gradientUnits="userSpaceOnUse"
       y2="546.31"
       x2="1090.89"
       y1="546.31"
       x1="270.81"><stop
         id="stop552"
         offset="0"
         style="stop-opacity:1;stop-color:#422a5a" /><stop
         id="stop554"
         offset="1"
         style="stop-opacity:1;stop-color:#000000" /></linearGradient><clipPath
       id="clipPath566"
       clipPathUnits="userSpaceOnUse"><path
         style="clip-rule:evenodd"
         id="path564"
         d="M 1090.8493,535.8807 H 270.7889 v -11.7763 h 820.0604 z" /></clipPath><linearGradient
       id="linearGradient572"
       spreadMethod="pad"
       gradientUnits="userSpaceOnUse"
       y2="529.95001"
       x2="1090.89"
       y1="529.95001"
       x1="270.81"><stop
         id="stop568"
         offset="0"
         style="stop-opacity:1;stop-color:#422a5a" /><stop
         id="stop570"
         offset="1"
         style="stop-opacity:1;stop-color:#000000" /></linearGradient><clipPath
       id="clipPath582"
       clipPathUnits="userSpaceOnUse"><path
         style="clip-rule:evenodd"
         id="path580"
         d="M 1090.8493,519.5149 H 270.7889 v -11.776 h 820.0604 z" /></clipPath><linearGradient
       id="linearGradient588"
       spreadMethod="pad"
       gradientUnits="userSpaceOnUse"
       y2="513.58002"
       x2="1090.89"
       y1="513.58002"
       x1="270.81"><stop
         id="stop584"
         offset="0"
         style="stop-opacity:1;stop-color:#422a5a" /><stop
         id="stop586"
         offset="1"
         style="stop-opacity:1;stop-color:#000000" /></linearGradient><clipPath
       id="clipPath598"
       clipPathUnits="userSpaceOnUse"><path
         style="clip-rule:evenodd"
         id="path596"
         d="M 1090.8207,502.7553 H 270.815 c 0.0853,-3.9912 0.4274,-7.92 1.0054,-11.7762 v 0 h 817.9948 c 0.5806,3.8562 0.9173,7.785 1.0055,11.7762" /></clipPath><linearGradient
       id="linearGradient604"
       spreadMethod="pad"
       gradientUnits="userSpaceOnUse"
       y2="496.85001"
       x2="1090.79"
       y1="496.85001"
       x1="270.81"><stop
         id="stop600"
         offset="0"
         style="stop-opacity:1;stop-color:#422a5a" /><stop
         id="stop602"
         offset="1"
         style="stop-opacity:1;stop-color:#000000" /></linearGradient><clipPath
       id="clipPath614"
       clipPathUnits="userSpaceOnUse"><path
         style="clip-rule:evenodd"
         id="path612"
         d="M 1088.9289,485.9904 H 272.7094 c 0.8319,-4.0221 1.9281,-7.9509 3.2626,-11.7709 v 0 h 809.6916 c 1.3346,3.82 2.4336,7.7488 3.2653,11.7709" /></clipPath><linearGradient
       id="linearGradient620"
       spreadMethod="pad"
       gradientUnits="userSpaceOnUse"
       y2="480.12"
       x2="1088.97"
       y1="480.12"
       x1="272.73001"><stop
         id="stop616"
         offset="0"
         style="stop-opacity:1;stop-color:#422a5a" /><stop
         id="stop618"
         offset="1"
         style="stop-opacity:1;stop-color:#000000" /></linearGradient><clipPath
       id="clipPath630"
       clipPathUnits="userSpaceOnUse"><path
         style="clip-rule:evenodd"
         id="path628"
         d="m 283.7701,457.4494 h 794.0903 c 2.234,3.7707 4.2086,7.6995 5.9009,11.784 H 277.8718 c 1.6948,-4.0794 3.6695,-8.0133 5.8983,-11.784" /></clipPath><linearGradient
       id="linearGradient636"
       spreadMethod="pad"
       gradientUnits="userSpaceOnUse"
       y2="463.29999"
       x2="1083.75"
       y1="463.29999"
       x1="277.85001"><stop
         id="stop632"
         offset="0"
         style="stop-opacity:1;stop-color:#422a5a" /><stop
         id="stop634"
         offset="1"
         style="stop-opacity:1;stop-color:#000000" /></linearGradient><clipPath
       id="clipPath646"
       clipPathUnits="userSpaceOnUse"><path
         style="clip-rule:evenodd"
         id="path644"
         d="M 1074.6986,452.4684 H 286.9319 c 2.8454,-4.1751 6.0177,-8.1167 9.4799,-11.7762 v 0 h 768.8095 c 3.4648,3.6595 6.6345,7.6011 9.4773,11.7762" /></clipPath><linearGradient
       id="linearGradient652"
       spreadMethod="pad"
       gradientUnits="userSpaceOnUse"
       y2="446.57001"
       x2="1074.7"
       y1="446.57001"
       x1="286.89999"><stop
         id="stop648"
         offset="0"
         style="stop-opacity:1;stop-color:#422a5a" /><stop
         id="stop650"
         offset="1"
         style="stop-opacity:1;stop-color:#000000" /></linearGradient><clipPath
       id="clipPath662"
       clipPathUnits="userSpaceOnUse"><path
         style="clip-rule:evenodd"
         id="path660"
         d="M 1060.147,435.7086 H 301.4861 c 4.911,-4.4677 10.3014,-8.4252 16.073,-11.7811 v 0 h 726.5123 c 5.7742,3.3559 11.1595,7.3134 16.0756,11.7811" /></clipPath><linearGradient
       id="linearGradient668"
       spreadMethod="pad"
       gradientUnits="userSpaceOnUse"
       y2="429.84"
       x2="1060.17"
       y1="429.84"
       x1="301.51999"><stop
         id="stop664"
         offset="0"
         style="stop-opacity:1;stop-color:#422a5a" /><stop
         id="stop666"
         offset="1"
         style="stop-opacity:1;stop-color:#000000" /></linearGradient><clipPath
       id="clipPath678"
       clipPathUnits="userSpaceOnUse"><path
         style="clip-rule:evenodd"
         id="path676"
         d="M 1034.1975,418.9465 H 327.4328 c 11.1438,-4.8178 23.3838,-7.5286 36.2225,-7.6088 v 0 h 634.3225 c 12.8387,0.0802 25.0787,2.791 36.2197,7.6088" /></clipPath><linearGradient
       id="linearGradient684"
       spreadMethod="pad"
       gradientUnits="userSpaceOnUse"
       y2="415.12"
       x2="1034.2"
       y1="415.12"
       x1="327.39999"><stop
         id="stop680"
         offset="0"
         style="stop-opacity:1;stop-color:#422a5a" /><stop
         id="stop682"
         offset="1"
         style="stop-opacity:1;stop-color:#000000" /></linearGradient></defs><g
     transform="matrix(1.3333333,0,0,-1.3333333,0,2267.7165)"
     id="g10"><g
       id="g12"><path
         id="path14"
         style="fill:#000000;fill-opacity:1;fill-rule:evenodd;stroke:none"
         d="m 364.2695,1086.9205 h 633.0994 c 51.414,0 93.4804,-42.0741 93.4804,-93.4753 V 504.813 c 0,-51.4038 -42.0794,-93.4781 -93.4804,-93.4781 H 364.2695 c -51.4012,0 -93.4806,42.0613 -93.4806,93.4781 v 488.6322 c 0,51.4117 42.0639,93.4753 93.4806,93.4753" /><g
         id="g16"><g
           clip-path="url(#clipPath22)"
           id="g18"><path
             id="path30"
             style="fill:url(#linearGradient28);fill-rule:evenodd;stroke:none"
             d="m 330.421,1080.5403 h 700.786 c -10.5038,4.1153 -21.9195,6.3802 -33.8381,6.3802 H 364.2695 v 0 c -11.9213,0 -23.3424,-2.2623 -33.8485,-6.3802" /></g></g><g
         id="g32"><g
           clip-path="url(#clipPath38)"
           id="g34"><path
             id="path46"
             style="fill:url(#linearGradient44);fill-rule:evenodd;stroke:none"
             d="m 303.3235,1064.1745 h 754.9912 c -5.2504,4.5326 -11.0038,8.4846 -17.1613,11.7813 H 320.4797 c -6.1628,-3.2913 -11.9109,-7.2513 -17.1562,-11.7813" /></g></g><g
         id="g48"><g
           clip-path="url(#clipPath54)"
           id="g50"><path
             id="path62"
             style="fill:url(#linearGradient60);fill-rule:evenodd;stroke:none"
             d="M 1063.2518,1059.5874 H 298.3762 c -3.6541,-3.6414 -7.0103,-7.5804 -10.0321,-11.7788 h 784.942 c -3.0166,4.1984 -6.3776,8.1374 -10.0343,11.7788" /></g></g><g
         id="g64"><g
           clip-path="url(#clipPath70)"
           id="g66"><path
             id="path78"
             style="fill:url(#linearGradient76);fill-rule:evenodd;stroke:none"
             d="m 278.9161,1031.4507 h 803.8035 c -1.8349,4.0867 -3.9547,8.0184 -6.3338,11.7709 H 285.2524 c -2.3817,-3.7525 -4.5014,-7.6842 -6.3363,-11.7709" /></g></g><g
         id="g80"><g
           clip-path="url(#clipPath86)"
           id="g82"><path
             id="path94"
             style="fill:url(#linearGradient92);fill-rule:evenodd;stroke:none"
             d="m 273.3418,1015.0773 h 814.9549 c -0.9669,4.0348 -2.1951,7.969 -3.6672,11.781 H 277.0036 c -1.4721,-3.812 -2.6952,-7.7462 -3.6618,-11.781" /></g></g><g
         id="g96"><g
           clip-path="url(#clipPath102)"
           id="g98"><path
             id="path110"
             style="fill:url(#linearGradient108);fill-rule:evenodd;stroke:none"
             d="m 270.9445,998.7114 h 819.7492 c -0.2279,3.9963 -0.7047,7.9302 -1.4227,11.7814 H 272.3672 c -0.7177,-3.8512 -1.2024,-7.7851 -1.4227,-11.7814" /></g></g><g
         id="g112"><g
           clip-path="url(#clipPath118)"
           id="g114"><path
             id="path126"
             style="fill:url(#linearGradient124);fill-rule:evenodd;stroke:none"
             d="M 1090.8388,994.1244 H 270.7994 l -0.0105,-0.6792 v -11.0996 h 820.0604 v 11.0996 l -0.011,0.6792 z" /></g></g><g
         id="g128"><g
           clip-path="url(#clipPath134)"
           id="g130"><path
             id="path142"
             style="fill:url(#linearGradient140);fill-rule:evenodd;stroke:none"
             d="m 270.7889,965.9823 h 820.0604 v 11.7763 H 270.7889 Z" /></g></g><g
         id="g144"><g
           clip-path="url(#clipPath150)"
           id="g146"><path
             id="path158"
             style="fill:url(#linearGradient156);fill-rule:evenodd;stroke:none"
             d="m 270.7889,949.6168 h 820.0604 v 11.776 H 270.7889 Z" /></g></g><g
         id="g160"><g
           clip-path="url(#clipPath166)"
           id="g162"><path
             id="path174"
             style="fill:url(#linearGradient172);fill-rule:evenodd;stroke:none"
             d="m 270.7889,933.2484 h 820.0604 v 11.7814 H 270.7889 Z" /></g></g><g
         id="g176"><g
           clip-path="url(#clipPath182)"
           id="g178"><path
             id="path190"
             style="fill:url(#linearGradient188);fill-rule:evenodd;stroke:none"
             d="m 270.7889,916.8877 h 820.0604 v 11.7762 H 270.7889 Z" /></g></g><g
         id="g192"><g
           clip-path="url(#clipPath198)"
           id="g194"><path
             id="path206"
             style="fill:url(#linearGradient204);fill-rule:evenodd;stroke:none"
             d="M 1090.8493,912.2956 H 270.7889 v -11.7788 h 820.0604 z" /></g></g><g
         id="g208"><g
           clip-path="url(#clipPath214)"
           id="g210"><path
             id="path222"
             style="fill:url(#linearGradient220);fill-rule:evenodd;stroke:none"
             d="m 270.7889,884.1538 h 820.0604 v 11.7759 H 270.7889 Z" /></g></g><g
         id="g224"><g
           clip-path="url(#clipPath230)"
           id="g226"><path
             id="path238"
             style="fill:url(#linearGradient236);fill-rule:evenodd;stroke:none"
             d="M 1090.8493,879.5667 H 270.7889 v -11.7839 h 820.0604 z" /></g></g><g
         id="g240"><g
           clip-path="url(#clipPath246)"
           id="g242"><path
             id="path254"
             style="fill:url(#linearGradient252);fill-rule:evenodd;stroke:none"
             d="M 1090.8493,863.1984 H 270.7889 V 851.417 h 820.0604 z" /></g></g><g
         id="g256"><g
           clip-path="url(#clipPath262)"
           id="g258"><path
             id="path270"
             style="fill:url(#linearGradient268);fill-rule:evenodd;stroke:none"
             d="m 270.7889,835.0566 h 820.0604 v 11.7785 H 270.7889 Z" /></g></g><g
         id="g272"><g
           clip-path="url(#clipPath278)"
           id="g274"><path
             id="path286"
             style="fill:url(#linearGradient284);fill-rule:evenodd;stroke:none"
             d="M 1090.8493,830.4667 H 270.7889 v -11.776 h 820.0604 z" /></g></g><g
         id="g288"><g
           clip-path="url(#clipPath294)"
           id="g290"><path
             id="path302"
             style="fill:url(#linearGradient300);fill-rule:evenodd;stroke:none"
             d="M 1090.8493,814.1009 H 270.7889 v -11.776 h 820.0604 z" /></g></g><g
         id="g304"><g
           clip-path="url(#clipPath310)"
           id="g306"><path
             id="path318"
             style="fill:url(#linearGradient316);fill-rule:evenodd;stroke:none"
             d="M 1090.8493,797.7353 H 270.7889 V 785.954 h 820.0604 z" /></g></g><g
         id="g320"><g
           clip-path="url(#clipPath326)"
           id="g322"><path
             id="path334"
             style="fill:url(#linearGradient332);fill-rule:evenodd;stroke:none"
             d="M 1090.8493,781.3721 H 270.7889 v -11.7814 h 820.0604 z" /></g></g><g
         id="g336"><g
           clip-path="url(#clipPath342)"
           id="g338"><path
             id="path350"
             style="fill:url(#linearGradient348);fill-rule:evenodd;stroke:none"
             d="M 1090.8493,765.0062 H 270.7889 v -11.781 h 820.0604 z" /></g></g><g
         id="g352"><g
           clip-path="url(#clipPath358)"
           id="g354"><path
             id="path366"
             style="fill:url(#linearGradient364);fill-rule:evenodd;stroke:none"
             d="M 1090.8493,748.6379 H 270.7889 v -11.776 h 820.0604 z" /></g></g><g
         id="g368"><g
           clip-path="url(#clipPath374)"
           id="g370"><path
             id="path382"
             style="fill:url(#linearGradient380);fill-rule:evenodd;stroke:none"
             d="m 270.7889,720.4986 h 820.0604 v 11.7737 H 270.7889 Z" /></g></g><g
         id="g384"><g
           clip-path="url(#clipPath390)"
           id="g386"><path
             id="path398"
             style="fill:url(#linearGradient396);fill-rule:evenodd;stroke:none"
             d="M 1090.8493,715.9065 H 270.7889 v -11.7814 h 820.0604 z" /></g></g><g
         id="g400"><g
           clip-path="url(#clipPath406)"
           id="g402"><path
             id="path414"
             style="fill:url(#linearGradient412);fill-rule:evenodd;stroke:none"
             d="M 1090.8493,699.5432 H 270.7889 v -11.7811 h 820.0604 z" /></g></g><g
         id="g416"><g
           clip-path="url(#clipPath422)"
           id="g418"><path
             id="path430"
             style="fill:url(#linearGradient428);fill-rule:evenodd;stroke:none"
             d="M 1090.8493,683.1723 H 270.7889 v -11.776 h 820.0604 z" /></g></g><g
         id="g432"><g
           clip-path="url(#clipPath438)"
           id="g434"><path
             id="path446"
             style="fill:url(#linearGradient444);fill-rule:evenodd;stroke:none"
             d="M 1090.8493,666.8067 H 270.7889 v -11.7762 h 820.0604 z" /></g></g><g
         id="g448"><g
           clip-path="url(#clipPath454)"
           id="g450"><path
             id="path462"
             style="fill:url(#linearGradient460);fill-rule:evenodd;stroke:none"
             d="m 270.7889,638.67 h 820.0604 v 11.7735 H 270.7889 Z" /></g></g><g
         id="g464"><g
           clip-path="url(#clipPath470)"
           id="g466"><path
             id="path478"
             style="fill:url(#linearGradient476);fill-rule:evenodd;stroke:none"
             d="M 1090.8493,634.0776 H 270.7889 v -11.7759 h 820.0604 z" /></g></g><g
         id="g480"><g
           clip-path="url(#clipPath486)"
           id="g482"><path
             id="path494"
             style="fill:url(#linearGradient492);fill-rule:evenodd;stroke:none"
             d="M 1090.8493,617.7146 H 270.7889 v -11.7813 h 820.0604 z" /></g></g><g
         id="g496"><g
           clip-path="url(#clipPath502)"
           id="g498"><path
             id="path510"
             style="fill:url(#linearGradient508);fill-rule:evenodd;stroke:none"
             d="M 1090.8493,601.3437 H 270.7889 v -11.7762 h 820.0604 z" /></g></g><g
         id="g512"><g
           clip-path="url(#clipPath518)"
           id="g514"><path
             id="path526"
             style="fill:url(#linearGradient524);fill-rule:evenodd;stroke:none"
             d="M 1090.8493,584.9779 H 270.7889 v -11.7814 h 820.0604 z" /></g></g><g
         id="g528"><g
           clip-path="url(#clipPath534)"
           id="g530"><path
             id="path542"
             style="fill:url(#linearGradient540);fill-rule:evenodd;stroke:none"
             d="M 1090.8493,568.6146 H 270.7889 v -11.7811 h 820.0604 z" /></g></g><g
         id="g544"><g
           clip-path="url(#clipPath550)"
           id="g546"><path
             id="path558"
             style="fill:url(#linearGradient556);fill-rule:evenodd;stroke:none"
             d="m 270.7889,540.4677 h 820.0604 v 11.7839 H 270.7889 Z" /></g></g><g
         id="g560"><g
           clip-path="url(#clipPath566)"
           id="g562"><path
             id="path574"
             style="fill:url(#linearGradient572);fill-rule:evenodd;stroke:none"
             d="M 1090.8493,535.8807 H 270.7889 v -11.7763 h 820.0604 z" /></g></g><g
         id="g576"><g
           clip-path="url(#clipPath582)"
           id="g578"><path
             id="path590"
             style="fill:url(#linearGradient588);fill-rule:evenodd;stroke:none"
             d="M 1090.8493,519.5149 H 270.7889 v -11.776 h 820.0604 z" /></g></g><g
         id="g592"><g
           clip-path="url(#clipPath598)"
           id="g594"><path
             id="path606"
             style="fill:url(#linearGradient604);fill-rule:evenodd;stroke:none"
             d="M 1090.8207,502.7553 H 270.815 c 0.0853,-3.9912 0.4274,-7.92 1.0054,-11.7762 v 0 h 817.9948 c 0.5806,3.8562 0.9173,7.785 1.0055,11.7762" /></g></g><g
         id="g608"><g
           clip-path="url(#clipPath614)"
           id="g610"><path
             id="path622"
             style="fill:url(#linearGradient620);fill-rule:evenodd;stroke:none"
             d="M 1088.9289,485.9904 H 272.7094 c 0.8319,-4.0221 1.9281,-7.9509 3.2626,-11.7709 v 0 h 809.6916 c 1.3346,3.82 2.4336,7.7488 3.2653,11.7709" /></g></g><g
         id="g624"><g
           clip-path="url(#clipPath630)"
           id="g626"><path
             id="path638"
             style="fill:url(#linearGradient636);fill-rule:evenodd;stroke:none"
             d="m 283.7701,457.4494 h 794.0903 c 2.234,3.7707 4.2086,7.6995 5.9009,11.784 H 277.8718 c 1.6948,-4.0794 3.6695,-8.0133 5.8983,-11.784" /></g></g><g
         id="g640"><g
           clip-path="url(#clipPath646)"
           id="g642"><path
             id="path654"
             style="fill:url(#linearGradient652);fill-rule:evenodd;stroke:none"
             d="M 1074.6986,452.4684 H 286.9319 c 2.8454,-4.1751 6.0177,-8.1167 9.4799,-11.7762 v 0 h 768.8095 c 3.4648,3.6595 6.6345,7.6011 9.4773,11.7762" /></g></g><g
         id="g656"><g
           clip-path="url(#clipPath662)"
           id="g658"><path
             id="path670"
             style="fill:url(#linearGradient668);fill-rule:evenodd;stroke:none"
             d="M 1060.147,435.7086 H 301.4861 c 4.911,-4.4677 10.3014,-8.4252 16.073,-11.7811 v 0 h 726.5123 c 5.7742,3.3559 11.1595,7.3134 16.0756,11.7811" /></g></g><g
         id="g672"><g
           clip-path="url(#clipPath678)"
           id="g674"><path
             id="path686"
             style="fill:url(#linearGradient684);fill-rule:evenodd;stroke:none"
             d="M 1034.1975,418.9465 H 327.4328 c 11.1438,-4.8178 23.3838,-7.5286 36.2225,-7.6088 v 0 h 634.3225 c 12.8387,0.0802 25.0787,2.791 36.2197,7.6088" /></g></g><path
         id="path688"
         style="fill:#000000;fill-opacity:1;fill-rule:nonzero;stroke:none"
         d="m 404.6071,687.7803 h -62.9569 v 309.2853 h 62.9569 z m 169.219,0 h -77.6486 l -72.7789,116.9419 c -7.8109,12.683 -12.7582,21.3466 -14.6915,25.9027 -1.9309,4.6465 -2.9364,9.8246 -2.9364,15.552 0,5.8725 1.0781,11.289 3.1695,16.1609 2.0863,4.9527 7.1917,13.6888 15.1582,26.2216 l 69.2958,108.5062 h 77.1072 L 470.7309,847.7189 Z M 633.9118,887.165 V 687.7803 H 577.0655 V 887.165 Z m -30.3213,84.7624 c 8.8968,0 16.4772,-3.0917 22.6607,-9.2026 6.186,-6.111 9.2803,-13.5304 9.2803,-22.2719 0,-8.7414 -3.1694,-16.319 -9.5085,-22.6607 -6.3442,-6.3388 -13.8492,-9.5136 -22.4325,-9.5136 -8.7364,0 -16.2414,3.1748 -22.4249,9.436 -6.1886,6.2662 -9.2858,13.8415 -9.2858,22.7383 0,8.7415 3.0972,16.1609 9.2027,22.1942 6.1109,6.0332 13.6137,9.1275 22.508,9.2803 z M 841.3228,687.7803 h -56.8434 v 105.8031 c 0,14.5415 -1.55,24.5163 -4.5638,29.9328 -2.3972,4.7165 -6.2665,8.503 -11.5222,11.5222 -5.3385,3.0192 -10.6022,4.561 -15.9356,4.561 -5.411,0 -10.8275,-1.5418 -16.3165,-4.6389 -5.4164,-3.0918 -9.5136,-6.8831 -12.2218,-11.4443 -1.8556,-3.4804 -3.0192,-6.9611 -3.5584,-10.444 -0.5414,-3.4804 -0.7696,-10.1305 -0.7696,-19.9551 V 687.7803 h -56.846 v 103.0924 c 0,15.3915 1.3139,27.9269 3.8639,37.5933 2.5504,9.6642 7.1167,18.9445 13.6137,27.919 8.2749,11.1385 18.5607,19.9525 30.7826,26.4521 12.9914,6.8028 26.7579,10.2055 41.2188,10.2055 21.1913,0 39.9827,-6.8054 56.4574,-20.4188 11.5299,-9.5136 19.8023,-20.5744 24.9049,-33.1798 5.1832,-12.6028 7.736,-28.072 7.736,-46.5551 z m 23.1866,-19.0247 h 56.8463 c 1.8581,-8.8918 4.4832,-15.9279 7.969,-21.0359 8.8943,-13.4553 21.2689,-20.1856 37.1188,-20.1856 13.4606,0 23.8995,5.0276 31.2492,15.0804 7.4222,10.055 11.1333,24.1299 11.1333,42.2268 v 18.097 c -11.6022,-6.8831 -20.8023,-11.522 -27.4524,-13.7639 -6.6552,-2.2442 -14.3858,-3.4027 -23.2826,-3.4027 -17.7106,0 -34.263,4.7945 -49.652,14.3081 -16.6274,9.8997 -29.3105,23.7439 -38.052,41.4547 -7.2666,14.461 -10.9026,29.8522 -10.9026,46.1713 0,29.4661 10.597,54.2132 31.7103,74.321 20.1082,19.0273 43.93,28.5409 71.6157,28.5409 23.7438,0 44.8599,-7.3497 63.4206,-21.9608 26.1414,-20.7326 39.2105,-50.1208 39.2105,-88.1728 v -88.09 c 0,-20.5694 -1.4694,-36.4272 -4.333,-47.4855 -2.8585,-11.1359 -8.2749,-21.8106 -16.3191,-32.0938 -9.9,-12.6885 -22.4274,-22.4274 -37.3524,-29.2382 -13.3024,-6.0333 -27.2245,-9.0471 -41.9213,-9.0471 -28.0717,0 -52.1265,9.7469 -72.0014,29.2328 -8.6635,8.2749 -15.0026,17.0941 -19.0247,26.3744 -4.1026,9.3581 -7.4273,22.1942 -9.9802,38.6689 z m 98.5314,166.2828 c -13.3024,0 -24.5914,-4.7945 -33.7941,-14.4663 -8.4302,-9.1222 -12.6881,-20.0302 -12.6881,-32.8663 0,-14.2302 4.9524,-26.0634 14.9301,-35.5771 8.5079,-7.9636 18.7939,-11.9885 30.8602,-11.9885 13.9195,0 25.4415,5.2636 34.6442,15.8553 7.5829,8.5884 11.3717,18.8745 11.3717,30.7825 0,14.5389 -4.7165,26.2942 -14.0748,35.3438 -8.5885,8.2774 -19.0273,12.6028 -31.2492,12.9166" /><path
         id="path690"
         style="fill:#ffffff;fill-opacity:1;fill-rule:nonzero;stroke:none"
         d="m 396.9541,695.4384 h -62.9594 v 309.2802 h 62.9594 z m 169.2193,0 h -77.6486 l -72.7789,116.9367 c -7.8086,12.6831 -12.761,21.3466 -14.6917,25.9079 -1.9386,4.6389 -2.9415,9.8246 -2.9415,15.5469 0,5.8776 1.0808,11.2887 3.1694,16.1608 2.0863,4.9524 7.1918,13.6914 15.1582,26.2216 l 69.2986,108.5063 h 77.112 L 463.0782,855.377 Z M 626.2563,894.818 V 695.4384 H 569.4075 V 894.818 Z m -30.3214,84.765 c 8.8968,0 16.4747,-3.0943 22.6633,-9.2053 6.1886,-6.1109 9.2804,-13.5306 9.2804,-22.2718 0,-8.7364 -3.1695,-16.3165 -9.5162,-22.6607 -6.3417,-6.3391 -13.8416,-9.5136 -22.4275,-9.5136 -8.7389,0 -16.2388,3.1745 -22.4274,9.4359 -6.1886,6.2637 -9.2804,13.8467 -9.2804,22.7384 0,8.7412 3.0918,16.1609 9.2027,22.1993 6.111,6.0307 13.6134,9.125 22.5051,9.2778 z M 833.6673,695.4384 H 776.821 V 801.239 c 0,14.5389 -1.5443,24.5188 -4.5609,29.9301 -2.3998,4.7166 -6.264,8.5082 -11.5248,11.522 -5.3334,3.0192 -10.5942,4.5663 -15.933,4.5663 -5.4136,0 -10.8249,-1.5471 -16.3191,-4.644 -5.411,-3.0917 -9.5136,-6.883 -12.2167,-11.4443 -1.8581,-3.4806 -3.0192,-6.961 -3.5581,-10.4388 -0.5417,-3.4832 -0.775,-10.1356 -0.775,-19.9551 V 695.4384 h -56.8459 v 103.0952 c 0,15.3913 1.3138,27.9161 3.8693,37.5879 2.5526,9.6639 7.1138,18.9445 13.6133,27.9165 8.2749,11.1384 18.5607,19.9525 30.7775,26.452 12.9968,6.8029 26.763,10.2056 41.224,10.2056 21.1915,0 39.9855,-6.8054 56.4573,-20.4137 11.5223,-9.5136 19.7972,-20.5744 24.9052,-33.1798 5.1832,-12.6079 7.7332,-28.0772 7.7332,-46.5602 z m 23.1894,-19.0273 h 56.846 c 1.853,-8.8968 4.4833,-15.933 7.9639,-21.0359 8.8968,-13.4581 21.2689,-20.183 37.1242,-20.183 13.4606,0 23.8995,5.0224 31.2438,15.0803 7.4251,10.05 11.1362,24.13 11.1362,42.2244 v 18.0994 c -11.5974,-6.883 -20.8026,-11.5248 -27.4553,-13.7664 -6.6472,-2.2442 -14.3858,-3.4053 -23.2775,-3.4053 -17.7106,0 -34.2604,4.7945 -49.6517,14.3082 -16.6274,9.9023 -29.3108,23.7438 -38.052,41.4547 -7.272,14.4635 -10.9054,29.8548 -10.9054,46.1713 0,29.4712 10.5945,54.2182 31.7131,74.3261 20.1079,19.0222 43.9246,28.5409 71.6154,28.5409 23.7413,0 44.8549,-7.3497 63.4155,-21.9685 26.1414,-20.7275 39.2131,-50.116 39.2131,-88.168 v -88.09 c 0,-20.5744 -1.4666,-36.4243 -4.3305,-47.4851 -2.861,-11.1388 -8.2774,-21.8132 -16.3165,-32.0993 -9.9022,-12.6805 -22.4274,-22.4274 -37.36,-29.2303 -13.3025,-6.0332 -27.2245,-9.0524 -41.9134,-9.0524 -28.0797,0 -52.1294,9.7444 -72.0042,29.2357 -8.661,8.2749 -15.0078,17.0912 -19.0273,26.3718 -4.0998,9.3606 -7.4248,22.1993 -9.9774,38.6714 z m 98.5314,166.28 c -13.3027,0 -24.5968,-4.7942 -33.7994,-14.4584 -8.4252,-9.1301 -12.6831,-20.0353 -12.6831,-32.8739 0,-14.2302 4.9524,-26.0635 14.925,-35.5771 8.5107,-7.9665 18.7991,-11.9835 30.8602,-11.9835 13.9195,0 25.4492,5.2558 34.6493,15.8528 7.5804,8.5859 11.3666,18.8691 11.3666,30.78 0,14.5412 -4.7165,26.2993 -14.0748,35.3463 -8.5805,8.2749 -19.0273,12.6029 -31.2438,12.9138" /><path
         id="path692"
         style="fill:#000000;fill-opacity:1;fill-rule:nonzero;stroke:none"
         d="m 334.8731,605.9333 v 40.8016 3.5167 h 3.5144 5.406 3.5141 v -3.5167 -32.042 h 14.663 3.5142 v -3.5144 -5.2452 -3.5116 h -3.5142 -23.5831 -3.5144 z m 49.792,0 v 40.8016 3.5167 h 3.5116 5.4603 3.5141 v -3.5167 -40.8016 -3.5116 h -3.5141 -5.4603 -3.5116 z m 35.375,0 v 40.8016 3.5167 h 3.509 4.7503 1.6767 l 1.0547,-1.3165 11.0089,-13.7429 11.0194,13.7429 1.0548,1.3165 h 1.6742 4.7503 3.5141 v -3.5167 -40.8016 -3.5116 h -3.5141 -5.292 -3.5141 v 3.5116 21.8806 l -6.9636,-8.674 -2.7341,-3.4053 -2.7289,3.4053 -6.948,8.6689 v -21.8755 -3.5116 h -3.5141 -5.2945 -3.509 z m 77.5136,20.3593 v -0.0284 h -0.013 c 0,-0.8062 0.0754,-1.612 0.2205,-2.3998 l 0.0802,-0.3835 c 0.1401,-0.6531 0.3266,-1.2779 0.5573,-1.8712 l 0.008,-0.0286 0.0105,0.005 c 0.1088,-0.2877 0.1916,-0.4952 0.2409,-0.6066 0.1063,-0.2359 0.1996,-0.4354 0.2798,-0.5857 0.4898,-0.9615 1.1273,-1.8504 1.8972,-2.6745 l 0.0284,-0.0311 c 0.5131,-0.5624 1.0522,-1.0494 1.6171,-1.4539 0.5726,-0.4093 1.2,-0.762 1.8788,-1.0573 l 0.0131,-0.0131 0.002,-0.003 0.003,0.003 c 0.2307,-0.0958 0.4226,-0.176 0.578,-0.2355 0.1556,-0.0573 0.3447,-0.1219 0.5754,-0.1894 0.9561,-0.2954 1.967,-0.4456 3.0319,-0.4456 h 0.0287 v -0.0156 c 0.7387,0.005 1.472,0.0777 2.1951,0.2279 l 0.3291,0.0751 h 0.0156 c 0.5675,0.135 1.1274,0.3266 1.6742,0.5624 l -0.003,0.005 c 0.2877,0.1296 0.4717,0.2149 0.5471,0.2512 0.0879,0.0467 0.2591,0.1425 0.5077,0.2877 0.9071,0.5366 1.7339,1.2053 2.4752,2.0007 h -0.003 l 0.008,0.013 0.0131,0.0286 c 0.1502,0.1554 0.2953,0.3187 0.4325,0.4845 v 0 c 0.1324,0.1607 0.2696,0.3345 0.4017,0.5105 l 0.0105,-0.003 c 0.6531,0.8683 1.1894,1.8349 1.599,2.8871 l 0.013,0.044 0.008,0.0207 h 0.005 c 0.057,0.153 0.1244,0.3421 0.197,0.5754 v 0.0156 c 0.0751,0.2307 0.14,0.4354 0.1894,0.6143 l 0.0127,0.0127 c 0.2903,1.0522 0.4354,2.1875 0.4354,3.4002 v 0.026 h 0.0131 c 0,0.8059 -0.0752,1.6067 -0.2203,2.3894 -0.0105,0.062 -0.0156,0.0649 -0.0831,0.3733 -0.1372,0.6375 -0.324,1.2515 -0.5544,1.8374 -0.2775,0.7073 -0.6273,1.3941 -1.0497,2.0628 -0.4303,0.6763 -0.9278,1.3218 -1.4876,1.9281 l -0.0128,0.0233 c -0.5184,0.5754 -1.0703,1.0754 -1.6613,1.5006 -0.5675,0.4173 -1.192,0.7722 -1.8686,1.0755 -0.6401,0.2851 -1.3139,0.5054 -2.0189,0.6531 -0.6763,0.1426 -1.3941,0.2151 -2.1484,0.2151 -0.7046,0 -1.3915,-0.0725 -2.0551,-0.2177 -0.6894,-0.1477 -1.3476,-0.3628 -1.9797,-0.6454 l 0.003,-0.003 -0.0131,-0.002 -0.0388,-0.0156 c -0.1531,-0.07 -0.3396,-0.1607 -0.5573,-0.2747 -0.2254,-0.1139 -0.4068,-0.21 -0.5363,-0.2877 l 0.002,-0.0102 c -0.9303,-0.5468 -1.7804,-1.213 -2.5398,-1.9982 v 0 l -0.005,-0.0104 -0.057,-0.0675 c -0.14,-0.1477 -0.2801,-0.2979 -0.4172,-0.4612 -0.127,-0.1451 -0.2566,-0.311 -0.3915,-0.4847 -0.6452,-0.8448 -1.1687,-1.7907 -1.5628,-2.8403 v -0.0156 c -0.303,-0.7827 -0.5232,-1.5497 -0.6556,-2.291 -0.1372,-0.7489 -0.2047,-1.5678 -0.2047,-2.4593 z m -12.8386,0.2049 v 0.0284 h 0.0104 c 0.005,1.6171 0.1528,3.1824 0.451,4.6831 0.0309,0.1709 0.0907,0.4274 0.1605,0.7514 0.2982,1.2932 0.6999,2.5606 1.1922,3.7837 l 0.008,-0.003 c 0.148,0.3679 0.3294,0.7826 0.5391,1.2387 0.2203,0.4717 0.4198,0.8759 0.5962,1.2025 l 0.0102,-0.005 c 1.0834,2.0214 2.4259,3.8537 4.0144,5.4861 1.1273,1.1586 2.3377,2.1875 3.6334,3.0841 1.3088,0.9097 2.6796,1.6716 4.0972,2.2805 h 0.0131 l 0.0258,0.008 c 0.337,0.1452 0.7489,0.3056 1.226,0.4743 0.5156,0.1865 0.9252,0.324 1.2333,0.4172 h 0.0105 c 2.1509,0.6401 4.3668,0.9587 6.6265,0.9587 h 0.0287 v -0.0127 c 1.6092,-0.003 3.1824,-0.1582 4.7114,-0.4641 0.2384,-0.0493 0.4924,-0.1063 0.7569,-0.1683 l 0.002,0.013 c 1.2569,-0.2982 2.5059,-0.718 3.7474,-1.2492 l 0.0128,-0.003 c 0.3966,-0.1712 0.7982,-0.3577 1.2027,-0.5522 0.3836,-0.1941 0.7747,-0.4042 1.1637,-0.6244 1.9434,-1.1067 3.7082,-2.4801 5.2917,-4.1233 l 0.003,0.003 0.008,-0.0105 0.0388,-0.0493 0.008,-0.008 c 0.3135,-0.324 0.622,-0.6661 0.9224,-1.0133 0.2747,-0.3136 0.5599,-0.6608 0.8552,-1.0418 1.4307,-1.8323 2.5631,-3.8174 3.4107,-5.9346 h 0.008 l 0.008,-0.021 0.0127,-0.0283 c 0.1764,-0.451 0.3294,-0.8708 0.4561,-1.2543 0.135,-0.4017 0.262,-0.832 0.3889,-1.2932 0.5933,-2.2028 0.8915,-4.5198 0.8915,-6.9378 v -0.0258 h -0.013 c -0.003,-1.6353 -0.1477,-3.2136 -0.4405,-4.7322 -0.0156,-0.0805 -0.0726,-0.3344 -0.1658,-0.7463 v -0.0105 c -0.2982,-1.3215 -0.6945,-2.594 -1.1843,-3.8069 l -0.008,0.002 c -0.176,-0.4405 -0.3498,-0.8473 -0.5235,-1.2231 -0.1554,-0.3317 -0.36,-0.7362 -0.6064,-1.1948 -1.0703,-2.0163 -2.4023,-3.8356 -3.9858,-5.4604 l -0.013,-0.0105 c -1.1429,-1.1687 -2.3635,-2.2003 -3.6541,-3.0943 -1.2907,-0.8915 -2.664,-1.6481 -4.1179,-2.2598 l 0.002,-0.005 -0.0207,-0.0105 c -0.3396,-0.1426 -0.754,-0.303 -1.2285,-0.4742 v -0.013 c -0.3393,-0.1242 -0.7566,-0.2591 -1.249,-0.4043 -2.1719,-0.6324 -4.4084,-0.9535 -6.7201,-0.9535 h -0.0206 v 0.0156 c -1.5965,0 -3.159,0.1578 -4.6673,0.4716 -0.2489,0.0545 -0.5029,0.1089 -0.7568,0.171 -1.2827,0.3084 -2.5243,0.7205 -3.7242,1.2336 l -0.0128,0.0156 c -1.4643,0.6375 -2.8377,1.3941 -4.1025,2.2728 -1.2725,0.8785 -2.4543,1.8839 -3.5479,3.0113 l -0.005,-0.005 -0.013,0.005 -0.0389,0.0595 c -0.3109,0.324 -0.6193,0.661 -0.9201,1.0057 -0.2954,0.3419 -0.5831,0.692 -0.8628,1.0548 -1.4281,1.8425 -2.5682,3.8458 -3.4132,5.9865 v 0.0156 l -0.003,0.0102 h -0.008 c -0.1167,0.3084 -0.2695,0.7256 -0.4458,1.2699 -0.197,0.5831 -0.3317,1.0185 -0.4068,1.2855 -0.5987,2.2184 -0.8994,4.5275 -0.8994,6.9273 z m 71.6751,23.7541 h 5.4267 3.4985 v -3.5167 -23.4096 h 0.0156 v -0.0907 h -0.0156 c 0,-1.1067 0.0363,-2.1096 0.1012,-3.0113 h 0.002 l 0.0338,-0.4354 h -0.0105 c 0.0442,-0.4873 0.1037,-0.8762 0.1661,-1.1585 h 0.005 c 0.0881,-0.3473 0.1865,-0.648 0.3033,-0.8915 0.1009,-0.2203 0.2253,-0.4249 0.3654,-0.6092 l 0.003,0.005 c 0.4017,-0.5003 0.8292,-0.9357 1.2852,-1.2985 0.4536,-0.3575 0.9332,-0.6557 1.423,-0.8785 h 0.003 c 0.0933,-0.0439 0.2358,-0.1009 0.443,-0.1735 l 0.0156,-0.0156 c 0.0675,-0.026 0.2254,-0.0751 0.4666,-0.1505 0.8603,-0.254 1.8295,-0.3835 2.9024,-0.3835 h 0.0156 v -0.0128 c 1.2336,0 2.3454,0.171 3.3327,0.508 h 0.0156 c 0.1321,0.0439 0.2772,0.1009 0.4121,0.1579 0.6996,0.2903 1.3244,0.6843 1.8737,1.1766 l 0.003,-0.005 c 0.6117,0.552 1.0704,1.1971 1.3788,1.9282 0.316,0.767 0.4768,1.6716 0.4768,2.7107 v 26.0374 3.5167 h 3.5166 5.4295 3.5116 v -3.5167 -26.2162 c 0,-2.7213 -0.4717,-5.222 -1.4125,-7.5104 -0.9587,-2.3222 -2.3817,-4.3642 -4.2656,-6.124 l -0.0156,-0.0127 -0.0105,-0.0131 h -0.003 c -0.5156,-0.4796 -1.0624,-0.9278 -1.6299,-1.3476 -0.5522,-0.407 -1.1455,-0.7957 -1.7728,-1.148 l 0.003,-0.0105 c -3.1045,-1.7725 -6.7252,-2.6614 -10.8587,-2.6614 -1.6662,0 -3.2808,0.1683 -4.8461,0.4974 -1.5732,0.3291 -3.058,0.8295 -4.4549,1.4877 v 0 l -0.0131,0.002 v 0.003 l -0.0156,0.0105 v 0.003 c -0.4198,0.1996 -0.8135,0.4017 -1.1738,0.5987 -0.3835,0.2151 -0.7568,0.4405 -1.1171,0.6738 -1.8607,1.2129 -3.4909,2.7496 -4.8875,4.587 l -0.005,-0.003 -0.0207,0.0284 -0.0232,0.0235 -0.0131,0.0156 0.003,0.003 c -0.1503,0.1995 -0.303,0.4042 -0.4482,0.6219 -0.1349,0.1916 -0.2928,0.4405 -0.4742,0.7359 -0.7699,1.2673 -1.3425,2.6175 -1.7184,4.0402 -0.2616,0.9927 -0.451,2.1821 -0.5726,3.5662 -0.1114,1.3034 -0.1633,2.8041 -0.1633,4.4989 v 23.6506 3.5167 h 3.5116 z m 56.9781,-41.1463 v 7.7074 10.1511 l 6.2691,-7.9795 0.0105,-0.0128 h -0.003 c 0.1038,-0.127 0.3059,-0.3679 0.6143,-0.718 0.2826,-0.324 0.4822,-0.5493 0.6117,-0.6865 1.0004,-1.0548 1.9177,-1.8349 2.7471,-2.3247 h 0.013 0.003 c 0.2148,-0.1245 0.3628,-0.2075 0.4405,-0.2489 l 0.008,0.0105 c 0.2203,-0.1089 0.3733,-0.184 0.4434,-0.2152 0.7489,-0.3033 1.5315,-0.4561 2.3454,-0.4561 v 0.0128 c 0.5881,0 1.0856,0.0623 1.4771,0.1814 v 0.005 c 0.2979,0.0907 0.5312,0.2123 0.7021,0.3628 0.1324,0.114 0.2359,0.2486 0.2957,0.3912 0.0802,0.1919 0.119,0.4587 0.119,0.8033 v 0.0156 h 0.0156 c 0,0.2826 -0.0363,0.5443 -0.1114,0.7801 l -0.002,-0.003 c -0.0156,0.0544 0.002,-0.0258 -0.0468,0.1009 v 0.0156 c -0.0646,0.1712 -0.1579,0.3396 -0.2772,0.5003 h 0.005 c -0.0519,0.0675 -0.0984,0.127 -0.1321,0.1633 -0.0389,0.0439 -0.1452,0.1502 -0.324,0.3211 -0.8215,0.7801 -2.1405,1.7884 -3.9572,3.0246 l -0.0286,0.0156 c -2.2677,1.5653 -4.1154,2.9517 -5.5381,4.1593 -1.612,1.3711 -2.7782,2.5942 -3.5039,3.6646 l -0.0105,0.0156 -0.0102,0.0153 0.0102,0.003 c -0.2046,0.3084 -0.4016,0.6296 -0.5907,0.9717 -0.1658,0.3059 -0.3291,0.6455 -0.4949,1.0185 l -0.005,-0.002 c -0.7671,1.7648 -1.1506,3.693 -1.1506,5.7764 0,2.0345 0.3498,3.9212 1.0497,5.6498 l 0.005,-0.003 c 0.7101,1.7572 1.7699,3.312 3.1668,4.6675 l 0.0131,0.0102 c 1.3943,1.3451 2.9985,2.361 4.8152,3.0399 1.7699,0.6662 3.6825,0.9978 5.7351,0.9978 1.8036,0 3.5997,-0.2877 5.4085,-0.8629 l 0.002,0.0128 0.0156,-0.008 0.013,-0.0104 c 0.4043,-0.1321 0.6582,-0.2149 0.7515,-0.2486 l -0.003,-0.005 c 0.2202,-0.0802 0.4586,-0.1761 0.7231,-0.2875 v -0.003 c 1.2206,-0.5051 2.4542,-1.1608 3.6853,-1.9721 l 1.5936,-1.0496 v -1.8763 -6.6189 -7.645 l -5.7946,4.981 c -0.71,0.6143 -1.4125,1.1557 -2.0967,1.6146 -0.622,0.4224 -1.1971,0.7541 -1.7261,1.0004 v 0 l -0.002,0.003 h -0.003 -0.003 l -0.005,0.003 -0.0105,0.008 v 0 c -0.1426,0.065 -0.2772,0.1168 -0.4042,0.1659 l 0.002,0.008 -0.4198,0.14 0.005,0.005 c -0.6502,0.2073 -1.2957,0.3135 -1.9437,0.3135 -0.5131,0 -0.9354,-0.0493 -1.2645,-0.1581 -0.254,-0.0777 -0.4822,-0.2047 -0.6789,-0.3705 h -0.005 c -0.0491,-0.0388 -0.0882,-0.0802 -0.1245,-0.114 v 0 l -0.0827,-0.0961 v 0 c -0.1089,-0.1451 -0.1608,-0.3447 -0.1608,-0.583 h 0.0156 c 0,-0.1321 0.2566,-0.487 0.775,-1.065 0.9148,-1.0211 2.3633,-2.1952 4.3538,-3.5246 v 0.003 l 0.0362,-0.0258 0.008,0.008 0.013,-0.0102 -0.005,-0.003 0.5026,-0.3291 0.254,-0.1578 0.0388,-0.0287 c 1.9412,-1.288 3.587,-2.5398 4.9346,-3.7448 1.4278,-1.2827 2.5214,-2.5268 3.2652,-3.7449 l 0.005,0.005 0.008,-0.0156 0.0286,-0.057 c 0.2149,-0.3551 0.4093,-0.7154 0.5907,-1.0783 h 0.0105 c 0.1347,-0.2692 0.2928,-0.6502 0.4819,-1.1454 0.7489,-1.9333 1.1248,-4.0921 1.1248,-6.4738 v -0.0128 h -0.013 c -0.003,-2.0111 -0.3549,-3.8743 -1.0548,-5.5822 -0.1296,-0.311 -0.2515,-0.5857 -0.3756,-0.8345 -0.6843,-1.389 -1.6095,-2.6433 -2.7601,-3.7605 l 0.005,-0.008 -0.0102,-0.008 -0.0544,-0.0414 c -0.394,-0.3809 -0.8062,-0.7307 -1.2209,-1.0522 -0.4093,-0.3135 -0.8498,-0.614 -1.319,-0.894 -2.304,-1.3762 -4.9654,-2.0653 -7.9846,-2.0653 v -0.0156 h -0.0312 v 0.0156 c -1.2438,0 -2.4074,0.0932 -3.4934,0.2772 l -0.0544,0.0156 -0.4482,0.0802 h -0.0519 c -0.9408,0.1865 -1.8555,0.451 -2.7314,0.7826 l 0.005,0.0131 c -0.3291,0.1219 -0.6143,0.2384 -0.8632,0.3447 h -0.0127 c -0.3164,0.1397 -0.6013,0.2746 -0.8632,0.4067 v 0.0156 c -1.4278,0.7283 -2.804,1.6818 -4.1179,2.8429 l -1.1922,1.0602 v 1.5599 z m 49.46,-3.172 v 40.8016 3.5167 h 3.5119 5.4629 3.5141 v -3.5167 -40.8016 -3.5116 h -3.5141 -5.4629 -3.5119 z m 35.3724,0 v 40.8016 3.5167 h 3.5116 4.7531 1.6869 l 1.0602,-1.332 18.8767,-23.7881 v 21.6034 3.5167 h 3.5144 5.4343 3.5116 v -3.5167 -40.8016 -3.4985 h -3.5116 -4.8591 -1.6923 l -1.0497,1.332 -18.807,23.7906 v -21.6241 -3.5116 h -3.5116 -5.4059 -3.5116 z m 65.0483,0 v 40.8016 3.5167 h 3.5144 22.9507 3.5116 v -3.5167 -5.1806 -3.5036 h -3.5116 -14.0332 v -5.3595 h 13.5488 3.509 v -3.5141 -5.2713 -3.5167 h -3.509 -13.5488 v -5.6962 h 14.6087 3.5141 v -3.5144 -5.2452 -3.5116 h -3.5141 -23.5262 -3.5144 z m 50.0225,3.172 v 7.7074 10.1511 l 6.2691,-7.9795 0.0105,-0.0128 h -0.005 c 0.1063,-0.127 0.3084,-0.3679 0.6142,-0.718 0.2852,-0.3265 0.4794,-0.5468 0.6013,-0.6738 l 0.0156,-0.0127 c 0.9978,-1.0548 1.915,-1.8324 2.747,-2.3247 h 0.0131 0.003 c 0.2177,-0.127 0.3705,-0.2152 0.4456,-0.2515 0.1244,-0.062 0.2721,-0.127 0.4433,-0.2021 0.749,-0.3033 1.5316,-0.4561 2.34,-0.4561 v 0.0128 c 0.6041,0 1.099,0.0623 1.4982,0.1868 0.2746,0.0853 0.5054,0.2098 0.6763,0.3523 l -0.003,0.0105 c 0.1451,0.1296 0.2514,0.2566 0.3058,0.3912 0.0853,0.1919 0.1242,0.4587 0.1242,0.8033 v 0.0156 h 0.013 c 0,0.2826 -0.0337,0.5443 -0.1088,0.7801 l -0.003,-0.003 c -0.0181,0.0544 0,-0.0258 -0.0465,0.1009 -0.0725,0.1868 -0.1556,0.3552 -0.2489,0.4898 l -0.002,-0.002 v 0.0105 l -0.0156,0.013 c -0.057,0.0697 -0.1038,0.1295 -0.14,0.1684 -0.0414,0.0439 -0.1452,0.1502 -0.3266,0.3211 -0.8189,0.7801 -2.1353,1.7884 -3.9521,3.0246 l -0.0286,0.0156 c -2.2728,1.5653 -4.1204,2.9517 -5.5406,4.1593 -1.5965,1.3606 -2.7677,2.5837 -3.5039,3.6802 h -0.013 l -0.008,0.0153 0.008,0.003 c -0.2047,0.3084 -0.3991,0.6296 -0.5857,0.9717 -0.1683,0.3059 -0.3316,0.6455 -0.4974,1.0185 l -0.003,-0.002 c -0.767,1.7648 -1.1509,3.693 -1.1509,5.7764 0,2.0268 0.3501,3.9056 1.0472,5.6342 0.7151,1.7648 1.7699,3.3225 3.1719,4.6805 l 0.0156,0.0102 c 1.3918,1.3451 2.996,2.361 4.8127,3.0399 1.7674,0.6662 3.6825,0.9978 5.7376,0.9978 1.8011,0 3.5997,-0.2877 5.4059,-0.8629 l 0.003,0.0128 0.0153,-0.008 0.013,-0.0104 c 0.3345,-0.1089 0.5857,-0.1968 0.7362,-0.2486 0.2228,-0.0805 0.4688,-0.1815 0.7384,-0.2929 l -0.003,-0.003 c 1.2206,-0.5051 2.4492,-1.1608 3.6854,-1.9721 l 1.5885,-1.0496 v -1.8763 -6.6189 -7.6476 l -5.8025,4.9992 c -0.6996,0.5987 -1.3944,1.1376 -2.0838,1.599 -0.6139,0.4198 -1.1814,0.749 -1.6999,0.9899 l -0.005,-0.003 c -0.5054,0.2333 -0.9952,0.4043 -1.4618,0.5131 -0.43,0.0958 -0.8785,0.1451 -1.3451,0.1451 h -0.0181 v 0.0156 c -0.4714,0 -0.8941,-0.0595 -1.2543,-0.1737 l -0.1267,-0.0519 c -0.2024,-0.0777 -0.381,-0.1865 -0.5417,-0.3186 h -0.003 c -0.0493,-0.0388 -0.0935,-0.0802 -0.127,-0.114 v 0 l -0.0805,-0.0961 v 0 c -0.1088,-0.1451 -0.1607,-0.3447 -0.1607,-0.583 h 0.0105 c 0,-0.1321 0.2591,-0.487 0.7775,-1.065 0.9122,-1.0211 2.3661,-2.1952 4.3537,-3.5246 v 0.003 l 0.0338,-0.0258 0.005,0.008 0.013,-0.0102 -0.003,-0.003 0.4819,-0.3109 0.2746,-0.176 0.0443,-0.0287 c 1.9408,-1.288 3.5866,-2.5398 4.9317,-3.7448 1.4306,-1.2827 2.5217,-2.5294 3.2652,-3.7449 l 0.003,0.005 0.0128,-0.0156 0.0261,-0.057 c 0.2591,-0.4328 0.4637,-0.7956 0.6012,-1.0783 0.1346,-0.2692 0.2954,-0.6451 0.4819,-1.1324 h 0.002 c 0.7492,-1.9332 1.1248,-4.0997 1.1248,-6.4868 v -0.0128 h -0.0156 c 0,-2.0111 -0.3549,-3.8743 -1.0573,-5.5822 -0.1451,-0.3603 -0.2721,-0.6455 -0.3756,-0.8501 l -0.005,0.003 c -0.6919,-1.3994 -1.6299,-2.6665 -2.804,-3.7939 -1.3969,-1.3504 -2.9959,-2.366 -4.7971,-3.0398 -1.7648,-0.6636 -3.6774,-0.9978 -5.735,-0.9978 h -0.0312 v 0.0156 c -1.2413,0 -2.41,0.0932 -3.4909,0.2772 l -0.0544,0.0156 -0.4507,0.0802 h -0.0519 c -0.9408,0.1865 -1.8555,0.451 -2.7289,0.7826 l 0.003,0.0131 c -0.3266,0.1219 -0.6143,0.2384 -0.8604,0.3447 h -0.0155 c -0.3136,0.1397 -0.6013,0.2721 -0.8604,0.4067 -1.4074,0.7181 -2.7807,1.6767 -4.1207,2.8585 l -1.1922,1.0602 v 1.5599 z" /><path
         id="path694"
         style="fill:#828283;fill-opacity:1;fill-rule:evenodd;stroke:none"
         d="m 1191.13,1343.0426 -11.6206,11.6258 -10.3896,-12.5042 -0.6893,6.7822 -3.7137,15.228 -5.9375,-57.2633 -31.0442,-27.2659 15.8525,5.2815 31.695,-31.6947 v -5.2818 l 5.2841,5.2818 h -5.2841 l -11.4443,11.4443 4.7191,1.0522 23.9797,-6.5724 -11.7654,26.4186 16.8607,-4.403 14.4272,41.3847 -19.9423,-5.5486 -2.747,13.7095 z" /><path
         id="path696"
         style="fill:#484a4b;fill-opacity:1;fill-rule:evenodd;stroke:none"
         d="m 1243.9619,1295.4951 -5.2844,-5.284 v -10.5659 10.5659 l 5.2844,5.284 5.284,5.2818 h 5.2815 -5.2815 l -58.1159,42.2657 -1.7597,-12.3253 2.747,-13.7095 19.9423,5.5486 -14.4272,-41.3847 -16.8607,4.403 11.7654,-26.4186 -23.9797,6.5724 -4.7191,-1.0522 11.4443,-11.4443 h 5.2841 l 16.9231,-0.2747 -6.7564,-26.3667 10.9676,-15.6246 20.8647,53.6222 -11.1799,-6.9585 -2.7989,4.7452 z" /><path
         id="path698"
         style="fill:#ffffff;fill-opacity:1;fill-rule:evenodd;stroke:none"
         d="m 1143.5876,1253.232 16.3009,-26.6984 -5.4578,-9.8351 10.2861,-5.7325 10.5658,31.6948 v 5.2894 5.2818 l -31.695,31.6947 z" /><path
         id="path700"
         style="fill:#828283;fill-opacity:1;fill-rule:evenodd;stroke:none"
         d="m 1312.6436,1242.6608 c 24.9801,0.5598 20.7479,-5.3697 26.4184,15.8553 -17.2962,-0.3887 -25.9339,1.6897 -26.4184,-15.8553" /><path
         id="path702"
         style="fill:#100f0d;fill-opacity:1;fill-rule:evenodd;stroke:none"
         d="m 1175.2826,1247.9502 v -5.2894 l -10.5658,-31.6948 -10.5633,-31.7001 8.4486,4.3721 13.6653,-20.5979 -6.2691,-15.4715 c 22.8084,6.0874 31.7027,34.4469 31.7027,63.3974 l -10.9676,15.6246 6.7564,26.3667 -16.9231,0.2747 z" /><path
         id="path704"
         style="fill:#c3c3c2;fill-opacity:1;fill-rule:evenodd;stroke:none"
         d="m 1154.1535,1179.2659 10.5633,31.7001 10.5658,31.6948 -10.5658,-31.6948 -10.2861,5.7325 5.4578,9.8351 -16.3009,26.6984 -6.4375,-116.1516 5.7717,-1.5885 z" /><path
         id="path706"
         style="fill:#100f0d;fill-opacity:1;fill-rule:evenodd;stroke:none"
         d="m 1312.6436,1242.6608 c 0.4845,17.545 9.1222,15.4666 26.4184,15.8553 -5.6705,-21.225 -1.4383,-15.2955 -26.4184,-15.8553 z m -73.9661,36.9844 v 10.5659 l 5.2844,5.284 -35.375,-33.1202 2.7989,-4.7452 11.1799,6.9585 -20.8647,-53.6222 c 0,-28.9505 -8.8943,-57.31 -31.7027,-63.3974 l 6.2691,15.4715 -13.6653,20.5979 -8.4486,-4.3721 -11.2317,-43.774 -5.7717,1.5885 6.4375,116.1516 v 31.6947 l -15.8525,-5.2815 -89.7822,-31.7727 c -0.029,-52.469 -42.2972,-93.395 -42.2972,-163.7016 0,-7.5881 47.882,-72.3929 58.1159,-79.2451 l 46.529,-512.5629 26.3174,-12.8307 c -4.7372,-19.5639 -34.8851,-31.8039 -20.0146,-55.7473 h 52.8319 c 8.9487,16.9101 1.902,19.0894 26.4132,21.1263 v 26.4212 42.2634 c 1.0106,38.3783 -15.8528,67.9199 -15.8502,132.0741 0.01,51.0718 0,102.1439 0,153.2135 23.2568,-33.4676 26.4161,-270.8657 26.4161,-332.8353 l -5.73,-37.264 5.73,-10.2835 h 47.5475 c 6.3881,9.5317 10.5655,9.2857 10.5655,21.1291 v 10.5659 c 0,14.2744 -2.5214,14.5698 -4.9005,25.431 l 15.0701,6.2742 5.6857,95.0899 6.3754,290.5407 10.2393,15.2461 c -1.5213,34.3565 -7.0724,105.2592 -10.9598,138.3716 -7.2046,61.3426 11.8978,83.4148 15.4743,126.4195 27.2424,-6.3468 26.7216,-21.1343 42.2657,-21.1343 h 47.5503 c 15.0804,0 18.4414,11.9679 26.4133,21.1343 v 26.4158 c -19.5095,22.4376 -21.6111,45.7282 -48.8226,72.6882 -25.5736,25.3403 -40.9935,31.5162 -40.9935,80.5201 l -11.6206,9.5111 -36.0306,5.6937 c 9.6094,8.907 15.9562,6.9607 15.9562,21.7769 0,19.5845 -40.7523,47.5475 -63.3974,47.5475 -15.5027,0 -52.8344,-3.1513 -52.8344,-15.8474 0,-10.2005 1.6639,-9.4022 5.2843,-15.8474 l -10.5658,-15.8527 3.7137,-15.228 0.6893,-6.7822 10.3896,12.5042 11.6206,-11.6258 58.1159,-42.2657 h 5.2815 l 24.2209,-33.4675 -2.2053,-4.3928 z" /><path
         id="path708"
         style="fill:#828283;fill-opacity:1;fill-rule:evenodd;stroke:none"
         d="m 1106.6034,423.7849 89.811,-5.2843 -5.73,10.2835 5.73,37.264 -10.5659,5.2843 v -26.4212 c -24.5112,-2.0369 -17.4645,-4.2162 -26.4132,-21.1263 z" /><path
         id="path710"
         style="fill:#c3c3c2;fill-opacity:1;fill-rule:evenodd;stroke:none"
         d="m 1196.4144,418.5006 c 32.5318,-20.6416 155.6107,3.719 174.3477,31.695 l -99.0627,35.9813 -1.3167,90.8138 -5.6857,-95.0899 -15.0701,-6.2742 c 2.3791,-10.8612 4.9005,-11.1566 4.9005,-25.431 v -10.5659 c 0,-11.8434 -4.1774,-11.5974 -10.5655,-21.1291 z" /><path
         id="path712"
         style="fill:#ffffff;fill-opacity:1;fill-rule:nonzero;stroke:none"
         d="m 331.3721,611.0334 v 40.807 3.5115 h 3.5141 5.4059 3.5144 v -3.5115 -32.0474 h 14.6605 3.5167 v -3.5141 -5.2455 -3.5116 h -3.5167 -23.5808 -3.5141 z m 49.7865,0 v 40.807 3.5115 h 3.5167 5.4607 3.5115 v -3.5115 -40.807 -3.5116 h -3.5115 -5.4607 -3.5167 z m 35.375,0 v 40.807 3.5115 h 3.5116 4.7528 1.6767 l 1.0548,-1.3167 11.0038,-13.7429 11.0194,13.7429 1.0599,1.3167 h 1.6716 4.7531 3.5141 v -3.5115 -40.807 -3.5116 h -3.5141 -5.2946 -3.5115 v 3.5116 21.886 l -6.969,-8.6794 -2.7289,-3.4027 -2.7289,3.4027 -6.9531,8.6689 v -21.8755 -3.5116 h -3.5141 -5.292 -3.5116 z m 77.5137,20.3595 v -0.0235 h -0.0128 c 0,-0.811 0.0751,-1.6118 0.2203,-2.3998 l 0.0853,-0.3886 c 0.14,-0.6531 0.324,-1.275 0.5522,-1.8661 l 0.013,-0.0309 0.005,0.003 c 0.1089,-0.2852 0.197,-0.4898 0.2461,-0.6012 0.1063,-0.241 0.197,-0.4354 0.2746,-0.5911 0.4953,-0.9561 1.1274,-1.8501 1.8973,-2.6719 l 0.0283,-0.0258 c 0.5134,-0.5649 1.0573,-1.0522 1.6223,-1.4564 0.5678,-0.4096 1.1948,-0.7671 1.8711,-1.0625 l 0.0156,-0.013 0.008,-0.003 0.002,0.008 c 0.2254,-0.1009 0.4224,-0.1814 0.5726,-0.2358 0.1556,-0.057 0.3501,-0.1219 0.5755,-0.1942 0.9561,-0.2957 1.972,-0.4434 3.0373,-0.4434 h 0.0232 v -0.0155 c 0.7438,0.003 1.4746,0.0779 2.1926,0.2256 l 0.3317,0.0751 h 0.0156 c 0.57,0.1372 1.1324,0.3266 1.6741,0.5624 l -0.003,0.0102 c 0.2928,0.1295 0.4716,0.2101 0.5493,0.2489 0.0907,0.0439 0.2616,0.1451 0.5105,0.2877 0.902,0.5363 1.7286,1.2076 2.4699,2.0032 l -0.003,0.003 0.0128,0.005 0.013,0.0286 c 0.1451,0.1582 0.2903,0.324 0.4277,0.4848 v 0 c 0.1321,0.1604 0.2693,0.3342 0.4068,0.5156 l 0.005,-0.008 c 0.6531,0.8708 1.1869,1.8377 1.599,2.8922 l 0.0131,0.0417 0.013,0.0207 v 0 c 0.0595,0.1553 0.127,0.3447 0.2021,0.578 v 0.0127 c 0.0751,0.2282 0.1398,0.4329 0.1891,0.6169 l 0.013,0.013 c 0.2849,1.0522 0.4301,2.1847 0.4301,3.395 v 0.0258 h 0.013 c 0,0.8113 -0.0751,1.6121 -0.2203,2.3973 -0.0104,0.0595 -0.0155,0.0621 -0.0802,0.3654 -0.1375,0.6375 -0.3265,1.2518 -0.5573,1.8425 -0.2721,0.7075 -0.6273,1.3969 -1.0496,2.0577 -0.4275,0.6843 -0.9278,1.3269 -1.4823,1.9281 l -0.013,0.0286 c -0.521,0.5701 -1.0755,1.0704 -1.6611,1.5004 -0.5729,0.4122 -1.1948,0.7724 -1.8686,1.0704 -0.6401,0.2851 -1.3139,0.5054 -2.0214,0.6582 -0.6738,0.14 -1.3918,0.2151 -2.1458,0.2151 -0.705,0 -1.3918,-0.0751 -2.0551,-0.2177 -0.6894,-0.1502 -1.3527,-0.3654 -1.9851,-0.6451 l 0.002,-0.008 -0.008,-0.002 -0.0414,-0.0156 c -0.1554,-0.0646 -0.3422,-0.1579 -0.5545,-0.2693 -0.2307,-0.1193 -0.4121,-0.2152 -0.5417,-0.2928 l 0.003,-0.005 c -0.9278,-0.5468 -1.7754,-1.2181 -2.5399,-2.0033 h 0.003 l -0.008,-0.0102 -0.0569,-0.0674 c -0.1347,-0.1426 -0.2747,-0.2982 -0.4122,-0.4561 -0.127,-0.1503 -0.2616,-0.3135 -0.3912,-0.4847 -0.6454,-0.8473 -1.1741,-1.7932 -1.5678,-2.8404 v -0.0156 c -0.3008,-0.7826 -0.5185,-1.5497 -0.6557,-2.296 -0.1324,-0.7438 -0.2049,-1.5679 -0.2049,-2.4594 z m -12.8359,0.2098 v 0.0233 h 0.0128 c 0.003,1.6225 0.1531,3.1824 0.4459,4.6831 0.0363,0.1709 0.0907,0.4274 0.1658,0.7514 0.2979,1.2986 0.6945,2.5606 1.1923,3.7863 l 0.002,-0.005 c 0.1502,0.3707 0.3291,0.7826 0.5443,1.2387 0.2202,0.4768 0.4198,0.8759 0.5958,1.2025 h 0.003 c 1.0857,2.0214 2.4282,3.8537 4.0167,5.4839 1.1274,1.161 2.3429,2.1897 3.6335,3.0866 1.3138,0.9097 2.6796,1.6662 4.1026,2.2754 h 0.0127 l 0.021,0.0127 c 0.3419,0.1426 0.7515,0.3008 1.2308,0.4717 0.5131,0.1894 0.9201,0.3266 1.2285,0.4173 h 0.0156 c 2.1484,0.6375 4.3614,0.9615 6.6266,0.9615 h 0.0232 v -0.0156 c 1.6095,0 3.1825,-0.1553 4.714,-0.4663 0.2359,-0.0493 0.4899,-0.1012 0.7569,-0.1661 l 0.005,0.0105 c 1.2543,-0.2979 2.5061,-0.7126 3.7474,-1.2413 l 0.008,-0.005 c 0.4017,-0.1709 0.8008,-0.3574 1.2025,-0.557 0.3886,-0.1919 0.7775,-0.3991 1.1687,-0.6194 1.9386,-1.1066 3.706,-2.4854 5.2895,-4.1283 v 0.008 l 0.013,-0.0127 0.0334,-0.0468 0.0105,-0.0131 c 0.3135,-0.3211 0.6194,-0.6607 0.9202,-1.008 0.2746,-0.3135 0.5595,-0.6661 0.8552,-1.0471 1.4303,-1.832 2.5682,-3.812 3.4154,-5.9346 l 0.003,0.005 0.013,-0.0258 0.0131,-0.0286 c 0.1763,-0.4456 0.3291,-0.8654 0.4561,-1.2543 0.1295,-0.3963 0.259,-0.8317 0.3809,-1.2878 0.5962,-2.2082 0.8966,-4.525 0.8966,-6.9429 v -0.0261 h -0.0102 c -0.005,-1.635 -0.153,-3.2134 -0.4459,-4.7268 -0.0156,-0.0856 -0.07,-0.337 -0.1607,-0.7492 v -0.0127 c -0.2979,-1.3193 -0.6996,-2.5892 -1.1894,-3.8072 l -0.003,0.002 c -0.1763,-0.4405 -0.3551,-0.8473 -0.5286,-1.2177 -0.1556,-0.3371 -0.3577,-0.7362 -0.6012,-1.2 -1.0755,-2.0137 -2.4078,-3.8355 -3.9887,-5.4552 l -0.0102,-0.0156 c -1.1429,-1.1636 -2.3635,-2.1952 -3.6567,-3.0892 -1.2906,-0.8915 -2.6643,-1.6484 -4.1153,-2.2623 l 0.003,-0.008 -0.0207,-0.008 c -0.3395,-0.1452 -0.7594,-0.3059 -1.2336,-0.4771 v -0.0128 c -0.3396,-0.1193 -0.7543,-0.2565 -1.2518,-0.3991 -2.1639,-0.6375 -4.4056,-0.9538 -6.7121,-0.9538 h -0.0261 v 0.0155 c -1.5962,0 -3.1538,0.1582 -4.6698,0.4692 -0.2438,0.0519 -0.4949,0.1114 -0.7543,0.1737 -1.2801,0.3085 -2.5243,0.7203 -3.7188,1.2334 l -0.013,0.0156 c -1.472,0.6324 -2.8378,1.3944 -4.1051,2.2703 -1.2697,0.8812 -2.4568,1.8867 -3.5451,3.014 l -0.0104,-0.0105 -0.008,0.0105 -0.0417,0.0545 c -0.3135,0.324 -0.6219,0.6658 -0.9224,1.0105 -0.2902,0.3371 -0.5833,0.692 -0.8631,1.0522 -1.4278,1.8454 -2.5682,3.8432 -3.4078,5.9865 v 0.0156 l -0.008,0.0131 h -0.002 c -0.1219,0.3033 -0.2696,0.7256 -0.451,1.2673 -0.1942,0.5857 -0.3317,1.0185 -0.4017,1.2878 -0.6037,2.2133 -0.9017,4.5275 -0.9017,6.9273 z m 71.6723,23.7492 h 5.4321 3.4985 v -3.5115 -23.4148 h 0.013 v -0.0907 h -0.013 c 0,-1.1015 0.0337,-2.1044 0.0958,-3.0115 h 0.003 l 0.0337,-0.4303 h -0.008 c 0.0465,-0.4924 0.101,-0.8785 0.1684,-1.1582 h 0.003 c 0.0856,-0.3527 0.1893,-0.6531 0.3007,-0.8915 0.1009,-0.2203 0.2305,-0.4252 0.368,-0.6092 h 0.005 c 0.3965,-0.5 0.8294,-0.9303 1.2855,-1.2957 0.4535,-0.3603 0.9278,-0.6531 1.4201,-0.8813 h 0.005 c 0.0882,-0.0388 0.2359,-0.0958 0.4434,-0.1735 l 0.0127,-0.0156 c 0.0649,-0.0207 0.2231,-0.07 0.4692,-0.1426 0.8552,-0.2616 1.8243,-0.3911 2.9001,-0.3911 h 0.0181 v -0.0131 c 1.2334,0 2.3426,0.171 3.3276,0.5131 h 0.0128 c 0.14,0.0442 0.28,0.0958 0.4198,0.1582 0.6948,0.2851 1.3192,0.6789 1.8686,1.1738 l 0.005,-0.005 c 0.6143,0.5547 1.0729,1.1973 1.3762,1.9307 0.3215,0.7619 0.4822,1.6665 0.4822,2.7056 v 26.0428 3.5115 h 3.5115 5.4343 3.5116 v -3.5115 -26.2216 c 0,-2.7159 -0.4717,-5.2195 -1.4176,-7.5079 -0.9561,-2.3193 -2.3763,-4.3614 -4.2656,-6.1262 l -0.0156,-0.013 -0.008,-0.008 v 0 c -0.5159,-0.4822 -1.0627,-0.9332 -1.6302,-1.3504 -0.5573,-0.4068 -1.1506,-0.7929 -1.7779,-1.1506 l 0.008,-0.005 c -3.1048,-1.7728 -6.7252,-2.6617 -10.8612,-2.6617 -1.6639,0 -3.2786,0.1661 -4.8439,0.4952 -1.578,0.3316 -3.0656,0.8266 -4.46,1.4901 v 0 l -0.008,0.005 h -0.005 l -0.0153,0.005 0.005,0.008 c -0.4198,0.1942 -0.8139,0.3963 -1.1741,0.5984 -0.3887,0.2151 -0.7645,0.4382 -1.122,0.6741 -1.8555,1.2075 -3.4858,2.7442 -4.8878,4.587 l -0.005,-0.008 -0.0156,0.0312 -0.0286,0.0258 -0.008,0.0156 0.002,0.003 c -0.1531,0.1995 -0.3084,0.4045 -0.451,0.6168 -0.1372,0.197 -0.2954,0.4433 -0.4717,0.7361 -0.7696,1.2671 -1.3476,2.6176 -1.7234,4.0403 -0.2617,0.9978 -0.4536,2.1897 -0.5675,3.571 -0.1114,1.3011 -0.1684,2.8041 -0.1684,4.4992 v 23.6506 3.5115 h 3.5115 z m 56.981,-41.1437 v 7.7099 l 0.003,10.1461 6.2688,-7.9795 0.005,-0.008 -0.002,-0.005 c 0.1088,-0.127 0.3109,-0.3654 0.614,-0.7126 0.28,-0.3266 0.4821,-0.5468 0.6168,-0.6868 0.9952,-1.0599 1.9179,-1.8349 2.747,-2.3298 h 0.0131 l 0.002,0.005 c 0.2101,-0.1296 0.3628,-0.2124 0.4405,-0.2486 l 0.003,0.005 c 0.2202,-0.1089 0.373,-0.1789 0.4456,-0.2101 0.7438,-0.3081 1.529,-0.4612 2.3428,-0.4612 v 0.0131 c 0.5933,0 1.0859,0.062 1.4822,0.1865 v 0 c 0.2928,0.0932 0.5287,0.2177 0.6974,0.3628 0.1372,0.1194 0.233,0.2489 0.2953,0.3915 0.0802,0.1916 0.1245,0.4612 0.1245,0.8033 v 0.0156 h 0.0156 c 0,0.2849 -0.0417,0.5443 -0.1117,0.7798 l -0.008,-0.003 c -0.0181,0.0569 0.008,-0.0207 -0.0414,0.1037 v 0.0156 c -0.0674,0.1684 -0.1607,0.3368 -0.2772,0.5029 v 0 c -0.0468,0.0672 -0.0935,0.1241 -0.127,0.1604 -0.0442,0.0468 -0.1505,0.1531 -0.3265,0.3189 -0.819,0.7801 -2.1382,1.7932 -3.9549,3.0243 l -0.0284,0.0156 c -2.2703,1.5653 -4.1207,2.9571 -5.5434,4.1647 -1.6067,1.3682 -2.7783,2.5888 -3.5014,3.6643 l -0.0127,0.013 -0.0105,0.0156 0.0105,0.005 c -0.205,0.3033 -0.4017,0.6273 -0.5911,0.972 -0.1632,0.3005 -0.3291,0.6426 -0.4898,1.0185 l -0.0102,-0.002 c -0.7619,1.7594 -1.1508,3.6876 -1.1508,5.7713 0,2.037 0.35,3.9209 1.0522,5.6523 l 0.003,-0.005 c 0.7155,1.7598 1.7703,3.3174 3.1669,4.6675 l 0.013,0.0131 c 1.3944,1.3476 3.0036,2.3635 4.8152,3.0424 1.77,0.6608 3.6825,0.9924 5.7405,0.9924 1.8037,0 3.5943,-0.2874 5.4034,-0.8629 l 0.008,0.0131 0.0156,-0.003 0.0131,-0.0156 c 0.3991,-0.127 0.6528,-0.2151 0.7463,-0.2488 l -0.003,-0.003 c 0.2205,-0.0777 0.464,-0.1738 0.7282,-0.2852 l -0.005,-0.008 c 1.2206,-0.5054 2.4542,-1.1611 3.6904,-1.9695 l 1.5886,-1.0471 v -1.8788 -6.6189 -7.6425 l -5.7895,4.9807 c -0.7152,0.6143 -1.4125,1.1509 -2.0965,1.6146 -0.6273,0.4224 -1.2025,0.7543 -1.726,0.9953 v 0 l -0.008,0.005 h -0.003 l -0.003,0.002 v 0.003 l -0.0156,0.003 v 0 c -0.1397,0.0646 -0.2797,0.1216 -0.4016,0.1709 l 0.005,0.003 -0.4199,0.14 0.003,0.008 c -0.648,0.21 -1.2986,0.3163 -1.9437,0.3163 -0.5159,0 -0.9383,-0.0544 -1.2674,-0.1581 -0.254,-0.0803 -0.4793,-0.2047 -0.6763,-0.3705 h -0.003 c -0.0493,-0.0443 -0.0932,-0.0805 -0.127,-0.1168 h 0.003 l -0.0882,-0.0984 h 0.005 c -0.1088,-0.1451 -0.1658,-0.3396 -0.1658,-0.5831 h 0.0156 c 0,-0.127 0.2619,-0.4872 0.7801,-1.0652 0.9122,-1.0211 2.3635,-2.1949 4.3486,-3.5246 l 0.005,0.005 0.0363,-0.0261 v 0.005 l 0.0156,-0.005 -0.003,-0.005 0.5054,-0.3266 0.2489,-0.1632 0.0389,-0.0233 c 1.9408,-1.2932 3.5892,-2.5398 4.9317,-3.7448 1.4357,-1.283 2.5242,-2.5294 3.2706,-3.7449 h 0.005 l 0.005,-0.0156 0.0286,-0.0519 c 0.2177,-0.3574 0.4147,-0.7177 0.5908,-1.078 h 0.0156 c 0.1295,-0.2721 0.2902,-0.6556 0.4821,-1.1455 0.7438,-1.9383 1.1194,-4.0946 1.1194,-6.4737 v -0.0131 h -0.013 c -0.003,-2.016 -0.3498,-3.8769 -1.0548,-5.5819 -0.1241,-0.3113 -0.2511,-0.5911 -0.3756,-0.8399 -0.6868,-1.3839 -1.6041,-2.6383 -2.7575,-3.7602 l 0.003,-0.005 -0.005,-0.0102 -0.0595,-0.0363 c -0.394,-0.3861 -0.8008,-0.7361 -1.2206,-1.0522 -0.4096,-0.3135 -0.8501,-0.6143 -1.3192,-0.894 -2.3037,-1.3763 -4.9655,-2.0657 -7.9821,-2.0657 v -0.0155 h -0.0309 v 0.0155 c -1.2441,0 -2.4103,0.0933 -3.4909,0.2722 l -0.0569,0.0156 -0.4485,0.0856 h -0.057 c -0.9408,0.1865 -1.8504,0.451 -2.7289,0.7826 l 0.005,0.008 c -0.3291,0.1219 -0.6142,0.2409 -0.8577,0.3447 h -0.0131 c -0.316,0.14 -0.6063,0.2772 -0.8628,0.407 v 0.0153 c -1.4332,0.7336 -2.8041,1.6872 -4.1182,2.8483 l -1.1945,1.0547 v 1.5628 z m 49.4625,-3.1748 v 40.807 3.5115 h 3.5116 5.4578 3.5116 v -3.5115 -40.807 -3.5116 h -3.5116 -5.4578 -3.5116 z m 35.3671,0 v 40.807 3.5115 h 3.5115 4.7557 1.6872 l 1.0599,-1.332 18.8796,-23.788 v 21.6085 3.5115 h 3.5115 5.432 3.5167 v -3.5115 -40.807 -3.4985 h -3.5167 -4.8566 -1.6897 l -1.0548,1.332 -18.807,23.7906 v -21.6241 -3.5116 h -3.5115 -5.4063 -3.5115 z m 65.0537,0 v 40.807 3.5115 h 3.5115 22.9485 3.5115 v -3.5115 -5.1857 -3.4988 h -3.5115 -14.031 v -5.3592 h 13.5462 3.5116 v -3.5116 -5.2792 -3.5116 h -3.5116 -13.5462 v -5.7013 h 14.6061 3.5141 v -3.5141 -5.2455 -3.5116 h -3.5141 -23.5236 -3.5115 z m 50.0173,3.1748 v 7.7099 10.1461 l 6.2742,-7.9795 0.005,-0.008 v -0.005 c 0.1037,-0.127 0.3033,-0.3654 0.6117,-0.7126 0.2823,-0.3266 0.4819,-0.5468 0.5984,-0.6738 l 0.0156,-0.013 c 1.0003,-1.0599 1.9205,-1.8349 2.7496,-2.3298 h 0.0156 v 0.005 c 0.2202,-0.1321 0.3682,-0.2149 0.4433,-0.2566 0.1242,-0.0569 0.2722,-0.127 0.4456,-0.197 0.7464,-0.3081 1.529,-0.4612 2.3429,-0.4612 v 0.0131 c 0.5987,0 1.0987,0.062 1.4927,0.1865 0.2798,0.0907 0.5054,0.2126 0.6789,0.3603 l -0.005,0.002 c 0.1502,0.1321 0.2514,0.2645 0.311,0.3915 0.0805,0.1916 0.1244,0.4612 0.1244,0.8033 v 0.0156 h 0.013 c 0,0.2849 -0.0388,0.5443 -0.1088,0.7798 l -0.0105,-0.003 c -0.0156,0.0569 0.005,-0.0207 -0.0388,0.1037 -0.0726,0.1919 -0.1557,0.3524 -0.2489,0.4924 l -0.005,-0.003 -0.005,0.005 -0.0131,0.0131 c -0.0518,0.0751 -0.0983,0.1295 -0.1346,0.1709 -0.0417,0.0468 -0.1505,0.1531 -0.3266,0.3189 -0.8243,0.7801 -2.1407,1.7932 -3.9574,3.0243 l -0.0258,0.0156 c -2.2703,1.5653 -4.1182,2.9571 -5.5434,4.1647 -1.5965,1.358 -2.7627,2.5837 -3.4986,3.6773 h -0.013 l -0.013,0.0156 0.013,0.005 c -0.2047,0.3033 -0.4042,0.6273 -0.591,0.972 -0.1633,0.3005 -0.3317,0.6426 -0.4924,1.0185 l -0.008,-0.002 c -0.767,1.7594 -1.148,3.6876 -1.148,5.7713 0,2.0265 0.3473,3.9056 1.0469,5.6367 0.71,1.7623 1.7727,3.325 3.1697,4.6777 l 0.0153,0.0131 c 1.3918,1.3476 2.9959,2.3635 4.8126,3.0424 1.77,0.6608 3.6828,0.9924 5.7376,0.9924 1.8014,0 3.6026,-0.2874 5.4063,-0.8629 l 0.003,0.0131 0.0156,-0.003 0.0128,-0.0156 c 0.3396,-0.1088 0.591,-0.1919 0.7361,-0.2488 0.2228,-0.0803 0.4692,-0.1735 0.7384,-0.2878 l -0.002,-0.008 c 1.2206,-0.5054 2.4542,-1.1611 3.6853,-1.9695 l 1.5939,-1.0471 v -1.8788 -6.6189 -7.6479 l -5.8079,4.9992 c -0.6945,0.6012 -1.394,1.1352 -2.0783,1.6015 -0.622,0.4147 -1.1869,0.7438 -1.7028,0.9902 l -0.003,-0.003 c -0.5105,0.2279 -1.0003,0.3989 -1.4694,0.5077 -0.4249,0.1012 -0.8759,0.1505 -1.3371,0.1505 h -0.0182 v 0.0156 c -0.4768,0 -0.894,-0.0598 -1.2543,-0.1788 l -0.1296,-0.0519 c -0.1995,-0.0777 -0.3835,-0.184 -0.5391,-0.3135 h -0.005 c -0.0468,-0.0443 -0.0907,-0.0805 -0.1244,-0.1168 v 0 l -0.0857,-0.0984 v 0 c -0.1034,-0.1451 -0.1604,-0.3396 -0.1604,-0.5831 h 0.0153 c 0,-0.127 0.2568,-0.4872 0.7776,-1.0652 0.9121,-1.0211 2.3609,-2.1949 4.3486,-3.5246 v 0.005 l 0.0363,-0.0261 0.008,0.005 0.0128,-0.005 -0.005,-0.005 0.4793,-0.3084 0.2801,-0.1814 0.0388,-0.0233 c 1.9412,-1.2932 3.5867,-2.5398 4.9317,-3.7448 1.4307,-1.283 2.5243,-2.5345 3.2655,-3.7449 h 0.008 l 0.008,-0.0156 0.0261,-0.0519 c 0.2642,-0.4354 0.4691,-0.7954 0.6063,-1.078 0.1296,-0.2695 0.2903,-0.6451 0.4768,-1.1375 l 0.003,0.005 c 0.7489,-1.9386 1.1245,-4.1026 1.1245,-6.4868 v -0.0131 h -0.0153 c 0,-2.016 -0.3501,-3.8769 -1.0523,-5.5819 -0.1505,-0.3603 -0.2772,-0.6506 -0.3758,-0.8553 l -0.008,0.008 c -0.6948,-1.4046 -1.6302,-2.6719 -2.8015,-3.7993 -1.402,-1.3476 -3.0036,-2.361 -4.8021,-3.0398 -1.7598,-0.6634 -3.6723,-0.9927 -5.73,-0.9927 h -0.0312 v 0.0155 c -1.2467,0 -2.4103,0.0933 -3.4934,0.2722 l -0.057,0.0156 -0.4459,0.0856 h -0.0569 c -0.9409,0.1865 -1.8505,0.451 -2.7289,0.7826 l 0.003,0.008 c -0.3265,0.1219 -0.6143,0.2409 -0.8603,0.3447 h -0.013 c -0.3161,0.14 -0.6013,0.2772 -0.8629,0.407 -1.402,0.7178 -2.7783,1.6767 -4.1156,2.8636 l -1.1971,1.0547 v 1.5628 z" /></g></g></svg>